<svg width="72" height="80" viewBox="0 0 72 80" fill="none" xmlns="http://www.w3.org/2000/svg">
<path d="M15.75 37.5H60.75C61.3467 37.5 61.919 37.7634 62.341 38.2322C62.7629 38.7011 63 39.337 63 40C63 40.663 62.7629 41.2989 62.341 41.7678C61.919 42.2366 61.3467 42.5 60.75 42.5H15.75C15.1533 42.5 14.581 42.2366 14.159 41.7678C13.7371 41.2989 13.5 40.663 13.5 40C13.5 39.337 13.7371 38.7011 14.159 38.2322C14.581 37.7634 15.1533 37.5 15.75 37.5Z" fill="#F8F8F8"/>
<path d="M16.6816 40L35.3431 60.73C35.7656 61.1994 36.003 61.8361 36.003 62.5C36.003 63.1639 35.7656 63.8006 35.3431 64.27C34.9206 64.7394 34.3476 65.0031 33.7501 65.0031C33.1526 65.0031 32.5796 64.7394 32.1571 64.27L11.9071 41.77C11.6976 41.5378 11.5313 41.2619 11.4179 40.9581C11.3045 40.6544 11.2461 40.3288 11.2461 40C11.2461 39.6711 11.3045 39.3455 11.4179 39.0418C11.5313 38.7381 11.6976 38.4622 11.9071 38.23L32.1571 15.73C32.5796 15.2606 33.1526 14.9968 33.7501 14.9968C34.3476 14.9968 34.9206 15.2606 35.3431 15.73C35.7656 16.1994 36.003 16.8361 36.003 17.5C36.003 18.1639 35.7656 18.8006 35.3431 19.27L16.6816 40Z" fill="#F8F8F8"/>
</svg>
