<svg width="745" height="628" viewBox="0 0 745 628" fill="none" xmlns="http://www.w3.org/2000/svg">
<path d="M212.4 256.55L519.167 256.55C526.7 256.55 532.807 250.344 532.807 242.688V14.4335C532.807 6.77768 526.7 0.571442 519.167 0.571442L212.4 0.571442C204.866 0.571442 198.759 6.77768 198.759 14.4335L198.759 242.688C198.759 250.344 204.866 256.55 212.4 256.55Z" fill="white"/>
<path d="M519.167 257.121H212.4C208.635 257.117 205.025 255.595 202.362 252.889C199.7 250.183 198.202 246.514 198.198 242.688V14.4334C198.202 10.6067 199.7 6.93799 202.362 4.23211C205.025 1.52624 208.635 0.00422159 212.4 0L519.167 0C522.932 0.00422125 526.543 1.52621 529.205 4.23207C531.868 6.93792 533.366 10.6067 533.37 14.4334V242.688C533.366 246.515 531.868 250.183 529.205 252.889C526.543 255.595 522.932 257.117 519.167 257.121ZM212.4 1.1428C208.933 1.14684 205.609 2.54839 203.157 5.03999C200.705 7.53159 199.326 10.9098 199.322 14.4334V242.688C199.326 246.211 200.705 249.59 203.157 252.081C205.609 254.573 208.933 255.974 212.4 255.978H519.167C522.634 255.974 525.958 254.573 528.41 252.081C530.862 249.59 532.241 246.212 532.245 242.688V14.4334C532.241 10.9097 530.862 7.53153 528.41 5.03995C525.958 2.54837 522.634 1.14684 519.167 1.1428H212.4Z" fill="#292A2E"/>
<path d="M238.512 22.0749L216.587 24.1878C214.323 24.406 212.661 26.4486 212.876 28.7499L214.955 51.0316C215.169 53.333 217.179 55.0217 219.444 54.8035L241.369 52.6905C243.633 52.4723 245.295 50.4298 245.08 48.1284L243.001 25.8467C242.786 23.5454 240.777 21.8567 238.512 22.0749Z" fill="#292A2E"/>
<path d="M300.948 70.4102L279.051 68.0159C276.789 67.7686 274.759 69.4314 274.515 71.7298L272.159 93.9831C271.916 96.2815 273.552 98.3452 275.814 98.5925L297.711 100.987C299.973 101.234 302.003 99.5713 302.247 97.2729L304.603 75.0196C304.846 72.7212 303.21 70.6575 300.948 70.4102Z" fill="white"/>
<path d="M298.16 101.705C297.986 101.705 297.811 101.696 297.638 101.677L275.742 99.2822C274.476 99.1424 273.317 98.4981 272.518 97.4907C271.72 96.4833 271.347 95.1951 271.482 93.9087L273.838 71.6567C273.905 71.0195 274.095 70.4021 274.398 69.8396C274.7 69.2772 275.108 68.7807 275.599 68.3787C276.09 67.9766 276.654 67.6767 277.259 67.4963C277.864 67.3158 278.498 67.2582 279.125 67.3268L301.022 69.7213C302.288 69.86 303.448 70.5041 304.246 71.5117C305.045 72.5194 305.418 73.8082 305.282 75.0948L302.926 97.3468C302.799 98.5422 302.243 99.6481 301.364 100.452C300.484 101.257 299.343 101.703 298.16 101.705ZM297.783 100.297C298.69 100.397 299.597 100.126 300.307 99.5448C301.017 98.9637 301.47 98.12 301.568 97.1991L303.925 74.9464C304.022 74.0254 303.755 73.1028 303.183 72.3815C302.612 71.6602 301.781 71.1992 300.875 71.0998L278.978 68.7061C278.529 68.657 278.075 68.6982 277.642 68.8274C277.209 68.9566 276.806 69.1712 276.454 69.459C276.103 69.7468 275.811 70.1021 275.594 70.5046C275.378 70.9072 275.242 71.3491 275.194 71.8051L272.837 94.0571C272.741 94.978 273.008 95.9001 273.58 96.6212C274.152 97.3422 274.982 97.8034 275.888 97.9037L297.783 100.297Z" fill="#292A2E"/>
<path d="M398.111 105.692C397.999 105.693 397.889 105.665 397.79 105.611C397.691 105.558 397.607 105.48 397.544 105.386C383.65 84.3842 362.574 80.5605 347.334 81.0459C337.029 81.4446 326.855 83.53 317.203 87.2218C317.036 87.2904 316.849 87.2894 316.683 87.2188C316.517 87.1482 316.385 87.0139 316.316 86.845C316.247 86.6761 316.247 86.4864 316.315 86.3171C316.383 86.1477 316.514 86.0126 316.679 85.941C326.485 82.1881 336.821 80.0671 347.291 79.6597C362.869 79.1618 384.434 83.084 398.677 104.611C398.746 104.716 398.786 104.837 398.792 104.963C398.799 105.088 398.771 105.213 398.713 105.324C398.655 105.435 398.568 105.528 398.462 105.593C398.356 105.657 398.235 105.692 398.111 105.692V105.692Z" fill="#292A2E"/>
<path d="M398.364 105.976C398.301 105.976 398.239 105.967 398.178 105.95L384.197 101.937C384.023 101.887 383.875 101.769 383.787 101.608C383.698 101.448 383.676 101.258 383.725 101.081C383.774 100.904 383.891 100.754 384.049 100.664C384.207 100.574 384.393 100.552 384.567 100.602L397.892 104.426L401.655 90.8839C401.708 90.7109 401.825 90.5656 401.981 90.4792C402.138 90.3927 402.322 90.3719 402.493 90.4212C402.664 90.4704 402.81 90.5858 402.899 90.7428C402.988 90.8997 403.013 91.0858 402.968 91.2611L399.02 105.47C398.98 105.615 398.894 105.743 398.776 105.835C398.658 105.926 398.513 105.976 398.364 105.976Z" fill="#292A2E"/>
<path d="M420.293 112.197L398.368 114.31C396.103 114.528 394.442 116.57 394.656 118.872L396.735 141.153C396.95 143.455 398.96 145.143 401.225 144.925L423.15 142.812C425.414 142.594 427.076 140.552 426.861 138.25L424.782 115.968C424.567 113.667 422.557 111.978 420.293 112.197Z" fill="#027354"/>
<path d="M491.95 43.697L469.971 42.2609C467.702 42.1125 465.743 43.8624 465.597 46.1693L464.184 68.5049C464.038 70.8118 465.76 72.8021 468.03 72.9505L490.008 74.3866C492.278 74.535 494.236 72.7851 494.382 70.4782L495.795 48.1426C495.941 45.8357 494.22 43.8453 491.95 43.697Z" fill="#292A2E"/>
<path d="M504.368 116.585L482.471 114.191C480.209 113.943 478.178 115.606 477.935 117.904L475.579 140.158C475.336 142.456 476.972 144.52 479.233 144.767L501.13 147.161C503.392 147.409 505.423 145.746 505.666 143.448L508.022 121.194C508.265 118.896 506.629 116.832 504.368 116.585Z" fill="#027354"/>
<path d="M384.167 189.076L362.242 191.189C359.977 191.407 358.316 193.449 358.53 195.751L360.61 218.032C360.824 220.334 362.834 222.022 365.099 221.804L387.024 219.691C389.288 219.473 390.95 217.431 390.735 215.129L388.656 192.847C388.441 190.546 386.431 188.857 384.167 189.076Z" fill="white"/>
<path d="M364.708 222.517C363.514 222.514 362.364 222.061 361.481 221.244C360.598 220.427 360.046 219.306 359.932 218.098L357.852 195.816C357.734 194.528 358.123 193.245 358.934 192.248C359.745 191.251 360.912 190.622 362.179 190.498L384.103 188.385C384.731 188.325 385.364 188.391 385.967 188.579C386.569 188.767 387.13 189.074 387.616 189.482C388.102 189.891 388.504 190.392 388.799 190.959C389.094 191.525 389.276 192.145 389.336 192.782L391.415 215.064C391.534 216.352 391.145 217.635 390.334 218.632C389.523 219.629 388.356 220.258 387.089 220.382L365.165 222.495C365.011 222.509 364.858 222.517 364.708 222.517ZM384.564 189.75C384.455 189.75 384.345 189.756 384.235 189.766L362.307 191.877C361.4 191.965 360.565 192.416 359.984 193.129C359.403 193.843 359.125 194.762 359.21 195.684L361.289 217.965C361.377 218.886 361.82 219.735 362.522 220.325C363.224 220.914 364.128 221.197 365.035 221.112L386.959 218.999C387.866 218.91 388.702 218.46 389.282 217.746C389.863 217.033 390.141 216.114 390.056 215.192L387.977 192.911C387.896 192.047 387.502 191.244 386.87 190.659C386.239 190.075 385.416 189.75 384.562 189.748L384.564 189.75Z" fill="#292A2E"/>
<path d="M242.796 181.539L220.871 183.652C218.606 183.871 216.945 185.913 217.159 188.214L219.238 210.496C219.453 212.798 221.463 214.486 223.727 214.268L245.653 212.155C247.917 211.937 249.579 209.894 249.364 207.593L247.285 185.311C247.07 183.01 245.06 181.321 242.796 181.539Z" fill="#027354"/>
<path d="M418.21 100.845C418.184 100.845 418.158 100.843 418.132 100.84C418.043 100.83 417.956 100.802 417.878 100.758C417.8 100.713 417.731 100.654 417.675 100.582C417.619 100.511 417.578 100.429 417.554 100.342C417.529 100.254 417.522 100.163 417.532 100.072C418.557 93.0711 420.687 86.284 423.839 79.9725C430.663 66.5314 441.363 58.8223 454.777 57.674C454.957 57.6585 455.136 57.7165 455.275 57.8352C455.413 57.9539 455.499 58.1235 455.514 58.3068C455.53 58.49 455.472 58.6719 455.356 58.8125C455.239 58.953 455.072 59.0406 454.892 59.056C423.607 61.73 418.932 99.846 418.887 100.231C418.868 100.4 418.788 100.555 418.663 100.669C418.539 100.782 418.377 100.844 418.21 100.845Z" fill="#292A2E"/>
<path d="M448.288 65.9281C448.153 65.9282 448.021 65.8877 447.909 65.8116C447.796 65.7355 447.709 65.6274 447.657 65.5008C447.605 65.3742 447.592 65.2348 447.618 65.1003C447.644 64.9658 447.709 64.8422 447.804 64.7451L454.109 58.3092L447.777 51.9017C447.711 51.8379 447.659 51.7615 447.623 51.677C447.587 51.5925 447.568 51.5015 447.567 51.4094C447.566 51.3174 447.584 51.226 447.618 51.1407C447.652 51.0555 447.702 50.9779 447.766 50.9127C447.83 50.8474 447.906 50.7958 447.99 50.7607C448.074 50.7257 448.164 50.708 448.254 50.7086C448.345 50.7092 448.434 50.7281 448.518 50.7642C448.601 50.8004 448.676 50.853 448.739 50.9191L455.555 57.8161C455.683 57.9462 455.755 58.1225 455.755 58.3064C455.755 58.4903 455.683 58.6666 455.555 58.7967L448.769 65.7235C448.706 65.7882 448.631 65.8396 448.548 65.8747C448.466 65.9098 448.377 65.9279 448.288 65.9281Z" fill="#292A2E"/>
<path d="M373.851 178.717C373.704 178.717 373.562 178.67 373.445 178.581C373.327 178.493 373.241 178.369 373.198 178.227C373.097 177.888 363.283 144.21 388.688 130.24C388.766 130.195 388.854 130.166 388.944 130.155C389.034 130.144 389.125 130.152 389.212 130.178C389.299 130.203 389.381 130.246 389.451 130.304C389.522 130.362 389.581 130.433 389.624 130.514C389.667 130.595 389.694 130.684 389.703 130.776C389.712 130.868 389.702 130.96 389.676 131.049C389.649 131.137 389.605 131.218 389.547 131.289C389.489 131.36 389.417 131.418 389.336 131.46C364.923 144.883 374.407 177.49 374.505 177.818C374.536 177.922 374.543 178.031 374.525 178.138C374.507 178.245 374.465 178.346 374.401 178.433C374.338 178.521 374.255 178.591 374.16 178.64C374.065 178.689 373.959 178.715 373.853 178.715L373.851 178.717Z" fill="#292A2E"/>
<path d="M386.092 139.491C385.981 139.491 385.872 139.463 385.774 139.411C385.675 139.358 385.592 139.282 385.529 139.189C385.466 139.096 385.427 138.988 385.414 138.876C385.402 138.764 385.416 138.651 385.457 138.546L388.303 131.114L380.991 128.218C380.825 128.15 380.693 128.017 380.622 127.85C380.552 127.683 380.548 127.495 380.613 127.326C380.678 127.156 380.806 127.019 380.968 126.945C381.131 126.87 381.317 126.863 381.485 126.926L389.434 130.07C389.518 130.103 389.594 130.152 389.659 130.215C389.723 130.278 389.775 130.354 389.811 130.437C389.847 130.521 389.867 130.61 389.869 130.701C389.871 130.792 389.855 130.883 389.822 130.968L386.728 139.046C386.678 139.177 386.591 139.289 386.478 139.369C386.364 139.448 386.23 139.491 386.092 139.491Z" fill="#292A2E"/>
<path d="M288.985 64.173C288.804 64.173 288.63 64.0999 288.502 63.9699C288.374 63.8398 288.302 63.6634 288.302 63.4795C288.302 52.9454 285.243 44.9041 279.208 39.5799C268.495 30.1303 251.833 32.4082 251.666 32.4325C251.487 32.4585 251.305 32.4111 251.16 32.3008C251.015 32.1905 250.919 32.0262 250.894 31.8441C250.868 31.662 250.915 31.4771 251.023 31.3299C251.132 31.1828 251.293 31.0855 251.473 31.0595C252.179 30.9561 268.907 28.6629 280.096 38.5265C286.448 44.1261 289.668 52.5217 289.667 63.4795C289.667 63.5706 289.649 63.6608 289.615 63.7449C289.581 63.829 289.53 63.9055 289.467 63.9699C289.404 64.0343 289.328 64.0853 289.246 64.1202C289.163 64.155 289.074 64.173 288.985 64.173Z" fill="#292A2E"/>
<path d="M289.018 64.4212C288.996 64.4212 288.975 64.4212 288.953 64.4212C288.864 64.4127 288.777 64.3864 288.698 64.3438C288.619 64.3012 288.549 64.2432 288.491 64.173L282.355 56.6428C282.24 56.5011 282.184 56.3186 282.201 56.1355C282.218 55.9523 282.306 55.7835 282.445 55.6661C282.585 55.5488 282.765 55.4925 282.945 55.5098C283.125 55.527 283.291 55.6163 283.407 55.758L289.11 62.757L295.994 56.9653C296.063 56.9072 296.142 56.8636 296.228 56.8368C296.314 56.81 296.404 56.8006 296.493 56.8092C296.582 56.8178 296.669 56.8441 296.748 56.8867C296.827 56.9293 296.897 56.9874 296.955 57.0575C297.012 57.1277 297.055 57.2086 297.081 57.2956C297.107 57.3827 297.117 57.4741 297.108 57.5648C297.1 57.6555 297.074 57.7436 297.032 57.8241C296.99 57.9045 296.933 57.9758 296.864 58.0339L289.451 64.2645C289.329 64.3663 289.176 64.4217 289.018 64.4212Z" fill="#292A2E"/>
<path d="M304.104 140.671H282.081C279.806 140.671 277.962 142.545 277.962 144.857V167.239C277.962 169.55 279.806 171.424 282.081 171.424H304.104C306.379 171.424 308.223 169.55 308.223 167.239V144.857C308.223 142.545 306.379 140.671 304.104 140.671Z" fill="#027354"/>
<path d="M360.194 181.575C360.042 181.575 359.895 181.523 359.775 181.428C359.656 181.333 359.571 181.2 359.534 181.05C351.926 150.122 314.729 152.291 314.359 152.317C314.269 152.323 314.179 152.311 314.094 152.282C314.009 152.253 313.931 152.207 313.863 152.147C313.795 152.087 313.74 152.014 313.7 151.932C313.66 151.85 313.637 151.762 313.63 151.67C313.624 151.579 313.636 151.488 313.665 151.402C313.693 151.315 313.739 151.235 313.798 151.166C313.857 151.098 313.929 151.041 314.009 151.001C314.09 150.96 314.177 150.936 314.267 150.93C321.118 150.695 327.96 151.61 334.518 153.639C344.257 156.731 356.731 163.938 360.857 180.71C360.878 180.799 360.883 180.891 360.87 180.981C360.857 181.071 360.826 181.157 360.78 181.235C360.734 181.314 360.673 181.382 360.601 181.436C360.529 181.49 360.447 181.529 360.36 181.551C360.306 181.566 360.25 181.574 360.194 181.575Z" fill="#292A2E"/>
<path d="M360.289 181.809C360.148 181.809 360.01 181.764 359.894 181.68L352.172 176.111C352.025 176.005 351.925 175.843 351.895 175.662C351.865 175.48 351.907 175.294 352.011 175.144C352.116 174.994 352.276 174.893 352.454 174.862C352.632 174.832 352.816 174.874 352.963 174.981L360.12 180.143L365.222 172.625C365.325 172.475 365.483 172.372 365.66 172.34C365.838 172.308 366.02 172.348 366.169 172.452C366.317 172.556 366.419 172.715 366.452 172.895C366.485 173.075 366.447 173.261 366.345 173.412L360.851 181.509C360.8 181.585 360.734 181.649 360.658 181.699C360.582 181.748 360.497 181.782 360.408 181.798C360.369 181.805 360.329 181.809 360.289 181.809Z" fill="#292A2E"/>
<path d="M695.746 627.746L697.086 627.484L676.14 415.961L674.8 416.223L695.746 627.746Z" fill="#494949"/>
<path d="M617.755 627.746L619.095 627.484L598.15 415.961L596.81 416.223L617.755 627.746Z" fill="#494949"/>
<path d="M445.361 627.746L444.021 627.484L464.966 415.961L466.306 416.223L445.361 627.746Z" fill="#494949"/>
<path d="M523.351 627.746L522.011 627.484L542.956 415.961L544.296 416.223L523.351 627.746Z" fill="#494949"/>
<path d="M551.122 322.863L538.886 415.996L540.238 416.18L552.474 323.047L551.122 322.863Z" fill="#494949"/>
<path d="M691.563 322.863L679.328 415.996L680.68 416.179L692.916 323.047L691.563 322.863Z" fill="#494949"/>
<path d="M539.01 422.912H676.38C680.086 422.912 683.091 419.859 683.091 416.092V416.091C683.091 412.325 680.086 409.271 676.38 409.271H539.01C535.304 409.271 532.299 412.325 532.299 416.091V416.092C532.299 419.859 535.304 422.912 539.01 422.912Z" fill="#292A2E"/>
<path opacity="0.8" d="M539.01 422.912H676.38C680.086 422.912 683.091 419.859 683.091 416.092V416.091C683.091 412.325 680.086 409.271 676.38 409.271H539.01C535.304 409.271 532.299 412.325 532.299 416.091V416.092C532.299 419.859 535.304 422.912 539.01 422.912Z" fill="white"/>
<path d="M531.617 416.092C531.619 414.1 532.399 412.19 533.785 410.782C535.171 409.374 537.05 408.581 539.01 408.579H676.38C678.341 408.579 680.221 409.371 681.608 410.78C682.994 412.189 683.773 414.1 683.773 416.093C683.773 418.085 682.994 419.996 681.608 421.405C680.221 422.815 678.341 423.606 676.38 423.606H539.01C537.05 423.604 535.17 422.811 533.784 421.403C532.398 419.994 531.619 418.084 531.617 416.092ZM539.01 409.965C537.411 409.965 535.878 410.611 534.747 411.76C533.617 412.909 532.981 414.467 532.981 416.092C532.981 417.717 533.617 419.275 534.747 420.424C535.878 421.573 537.411 422.219 539.01 422.219H676.38C677.979 422.219 679.512 421.573 680.643 420.424C681.773 419.275 682.409 417.717 682.409 416.092C682.409 414.467 681.773 412.909 680.643 411.76C679.512 410.611 677.979 409.965 676.38 409.965H539.01Z" fill="#292A2E"/>
<path d="M463.614 422.912H600.984C604.69 422.912 607.695 419.859 607.695 416.092V416.091C607.695 412.325 604.69 409.271 600.984 409.271H463.614C459.908 409.271 456.903 412.325 456.903 416.091V416.092C456.903 419.859 459.908 422.912 463.614 422.912Z" fill="white"/>
<path d="M456.217 416.092C456.219 414.1 457 412.189 458.386 410.781C459.773 409.372 461.653 408.581 463.613 408.579H600.984C602.944 408.579 604.825 409.371 606.211 410.78C607.598 412.189 608.377 414.1 608.377 416.093C608.377 418.085 607.598 419.996 606.211 421.405C604.825 422.815 602.944 423.606 600.984 423.606H463.613C461.653 423.604 459.773 422.812 458.386 421.404C456.999 419.995 456.219 418.085 456.217 416.092ZM463.613 409.966C462.822 409.966 462.038 410.124 461.306 410.432C460.575 410.74 459.91 411.192 459.351 411.76C458.791 412.329 458.347 413.005 458.044 413.748C457.741 414.491 457.585 415.288 457.585 416.093C457.585 416.897 457.741 417.694 458.044 418.437C458.347 419.181 458.791 419.856 459.351 420.425C459.91 420.994 460.575 421.445 461.306 421.753C462.038 422.061 462.822 422.219 463.613 422.219H600.984C602.582 422.219 604.116 421.574 605.246 420.425C606.377 419.276 607.012 417.718 607.012 416.093C607.012 414.468 606.377 412.909 605.246 411.76C604.116 410.612 602.582 409.966 600.984 409.966H463.613Z" fill="#292A2E"/>
<path d="M558.654 322.959H691.88C694.058 322.959 696.162 322.153 697.799 320.693C699.435 319.232 700.493 317.216 700.774 315.021L709.586 246.243C709.751 244.958 709.644 243.651 709.273 242.411C708.901 241.171 708.273 240.025 707.432 239.051C706.59 238.077 705.553 237.297 704.391 236.762C703.229 236.227 701.968 235.951 700.693 235.951H567.466C565.287 235.95 563.183 236.756 561.545 238.217C559.908 239.678 558.85 241.695 558.569 243.891L549.757 312.667C549.592 313.953 549.699 315.26 550.071 316.5C550.443 317.74 551.071 318.886 551.913 319.86C552.755 320.834 553.792 321.614 554.954 322.149C556.117 322.683 557.378 322.96 558.654 322.959Z" fill="#292A2E"/>
<path opacity="0.8" d="M558.654 322.959H691.88C694.058 322.959 696.162 322.153 697.799 320.693C699.435 319.232 700.493 317.216 700.774 315.021L709.586 246.243C709.751 244.958 709.644 243.651 709.273 242.411C708.901 241.171 708.273 240.025 707.432 239.051C706.59 238.077 705.553 237.297 704.391 236.762C703.229 236.227 701.968 235.951 700.693 235.951H567.466C565.287 235.95 563.183 236.756 561.545 238.217C559.908 239.678 558.85 241.695 558.569 243.891L549.757 312.667C549.592 313.953 549.699 315.26 550.071 316.5C550.443 317.74 551.071 318.886 551.913 319.86C552.755 320.834 553.792 321.614 554.954 322.149C556.117 322.683 557.378 322.96 558.654 322.959Z" fill="white"/>
<path d="M551.405 320.316C550.499 319.268 549.823 318.036 549.423 316.701C549.023 315.367 548.908 313.961 549.085 312.578L557.898 243.801C558.205 241.441 559.344 239.275 561.104 237.704C562.865 236.133 565.126 235.264 567.468 235.259H700.694C702.067 235.259 703.424 235.556 704.675 236.132C705.925 236.707 707.041 237.547 707.947 238.595C708.852 239.643 709.528 240.876 709.928 242.211C710.327 243.545 710.442 244.951 710.265 246.335L701.453 315.11C701.146 317.47 700.006 319.637 698.246 321.208C696.486 322.779 694.225 323.647 691.883 323.653H558.654C557.282 323.652 555.926 323.354 554.676 322.779C553.426 322.204 552.311 321.364 551.405 320.316ZM567.467 236.646C565.456 236.651 563.515 237.397 562.005 238.746C560.494 240.095 559.516 241.955 559.252 243.98L550.439 312.756C550.287 313.944 550.386 315.151 550.73 316.297C551.073 317.443 551.653 318.501 552.43 319.401C553.208 320.301 554.166 321.022 555.24 321.516C556.313 322.01 557.478 322.266 558.657 322.266H691.883C693.894 322.261 695.836 321.515 697.347 320.167C698.858 318.818 699.837 316.957 700.101 314.931L708.913 246.155C709.065 244.967 708.966 243.76 708.623 242.614C708.279 241.469 707.7 240.41 706.922 239.51C706.144 238.61 705.187 237.889 704.113 237.395C703.039 236.901 701.874 236.646 700.696 236.646H567.467Z" fill="#292A2E"/>
<path d="M551.12 322.959H684.346C686.524 322.959 688.628 322.153 690.264 320.693C691.901 319.232 692.959 317.216 693.24 315.021L702.053 246.243C702.217 244.958 702.11 243.651 701.739 242.411C701.367 241.171 700.739 240.025 699.898 239.051C699.056 238.077 698.019 237.297 696.857 236.762C695.695 236.227 694.434 235.951 693.158 235.951H559.933C557.755 235.951 555.652 236.756 554.015 238.217C552.379 239.678 551.321 241.694 551.04 243.889L542.227 312.665C542.062 313.95 542.169 315.257 542.54 316.497C542.911 317.738 543.539 318.883 544.381 319.858C545.222 320.832 546.259 321.613 547.421 322.147C548.583 322.682 549.844 322.959 551.12 322.959Z" fill="white"/>
<path d="M543.868 320.316C542.962 319.268 542.286 318.036 541.886 316.701C541.486 315.367 541.371 313.961 541.548 312.578L550.36 243.801C550.668 241.441 551.808 239.274 553.568 237.703C555.329 236.132 557.591 235.264 559.934 235.259H693.16C694.533 235.259 695.89 235.556 697.14 236.132C698.391 236.707 699.506 237.547 700.412 238.595C701.318 239.643 701.993 240.876 702.393 242.211C702.793 243.545 702.908 244.951 702.73 246.335L693.919 315.11C693.611 317.47 692.471 319.637 690.711 321.208C688.951 322.778 686.69 323.647 684.347 323.653H551.12C549.747 323.652 548.39 323.355 547.14 322.779C545.889 322.204 544.774 321.364 543.868 320.316ZM559.934 236.646C557.922 236.651 555.981 237.397 554.47 238.745C552.959 240.094 551.98 241.954 551.716 243.98L542.904 312.756C542.751 313.944 542.85 315.151 543.194 316.297C543.537 317.443 544.117 318.501 544.895 319.401C545.672 320.301 546.63 321.022 547.704 321.516C548.777 322.01 549.942 322.266 551.121 322.266H684.346C686.357 322.261 688.299 321.515 689.81 320.167C691.321 318.818 692.299 316.957 692.563 314.931L701.376 246.156C701.528 244.968 701.429 243.761 701.086 242.615C700.743 241.469 700.163 240.411 699.385 239.511C698.607 238.611 697.65 237.89 696.576 237.396C695.502 236.902 694.337 236.646 693.158 236.646H559.934Z" fill="#292A2E"/>
<path d="M450.43 591.105C450.43 591.105 446.772 610.378 429.015 611.453C411.259 612.527 415.109 626.902 415.109 626.902H482.965V592.449L450.43 591.105Z" fill="#027354"/>
<path d="M511.314 578.936C511.314 578.936 516.402 597.871 500.936 606.801C485.47 615.73 495.168 626.902 495.168 626.902L556.055 596.46L541.091 565.548L511.314 578.936Z" fill="#027354"/>
<path d="M549.026 573.588L497.68 408.97H590.753C609.449 408.97 617.242 392.858 617.242 373.859C617.242 354.86 598.863 338.205 580.168 338.205H454.554C443.152 338.205 430.366 345.292 424.108 354.979C417.849 364.666 419.541 379.678 424.075 390.311L506.298 593.26" fill="#262626"/>
<path opacity="0.8" d="M549.026 573.588L497.68 408.97H590.753C609.449 408.97 617.242 392.858 617.242 373.859C617.242 354.86 598.863 338.205 580.168 338.205H454.554C443.152 338.205 430.366 345.292 424.108 354.979C417.849 364.666 419.541 379.678 424.075 390.311L506.298 593.26" fill="#0A0A0A"/>
<path d="M488.27 604.921L504.51 408.97L617.24 408.963C643.655 406.859 655.751 392.146 655.367 373.152C654.987 354.397 645.644 335.874 627.272 335.874H475.337C461.744 336.158 446.008 349.224 446.008 364.253L438.113 602.644" fill="#262626"/>
<path d="M663.058 336.103C663.058 336.103 668.064 369.282 660.129 387.729C650.222 410.758 613.083 408.963 613.083 408.963L615.176 335.874L663.058 336.103Z" fill="#262626"/>
<path d="M668.576 332.353L668.72 332.362C668.72 332.362 668.616 329.535 668.576 332.353Z" fill="#333333"/>
<path d="M668.395 332.353L668.539 332.362C668.539 332.362 668.435 329.535 668.395 332.353Z" fill="#333333"/>
<path d="M426.717 197.84C426.983 197.306 427.405 196.868 427.926 196.588C428.447 196.308 429.04 196.199 429.624 196.276C429.62 196.223 429.631 196.17 429.657 196.124C429.684 196.089 429.72 196.061 429.761 196.044C429.802 196.027 429.847 196.022 429.891 196.028L427.919 194.591C427.33 194.18 426.906 193.567 426.727 192.864C426.548 192.162 426.625 191.417 426.944 190.767C427.28 190.136 427.835 189.654 428.501 189.414C429.167 189.175 429.896 189.195 430.548 189.471C430.544 189.443 430.562 189.416 430.566 189.387L429.756 188.796C429.202 188.408 428.798 187.837 428.61 187.18C428.423 186.523 428.465 185.82 428.729 185.191C428.902 184.799 429.159 184.452 429.481 184.174C429.803 183.896 430.182 183.693 430.59 183.582C430.998 183.47 431.425 183.452 431.841 183.529C432.257 183.605 432.65 183.775 432.994 184.025L434.864 185.387C434.87 185.376 434.864 185.363 434.872 185.352C434.879 185.342 434.899 185.338 434.91 185.326C434.481 184.835 434.228 184.211 434.194 183.555C434.16 182.899 434.346 182.251 434.722 181.716C435.605 180.273 437.642 180.568 438.851 181.449L449.858 189.175L447.892 185.802C447.496 185.154 447.357 184.378 447.502 183.63C447.647 182.881 448.067 182.217 448.676 181.771C448.998 181.552 449.36 181.402 449.741 181.33C450.122 181.258 450.514 181.266 450.892 181.353C451.27 181.44 451.627 181.604 451.94 181.836C452.253 182.068 452.517 182.362 452.715 182.7L463.457 201.077C464.717 203.233 465.101 205.803 464.526 208.242C463.951 210.681 462.463 212.796 460.378 214.137C457.96 215.693 455.14 216.48 452.28 216.396C449.419 216.313 446.648 215.363 444.322 213.668L427.7 201.561C427.148 201.144 426.751 200.549 426.572 199.874C426.394 199.199 426.445 198.482 426.717 197.84Z" fill="#E98862"/>
<g opacity="0.25">
<path d="M445.757 193.016C445.716 193.073 445.656 193.111 445.588 193.123C445.52 193.134 445.45 193.118 445.394 193.079L434.936 185.718C434.879 185.677 434.841 185.615 434.828 185.546C434.816 185.476 434.831 185.405 434.871 185.346C434.91 185.288 434.971 185.248 435.039 185.236C435.108 185.223 435.178 185.238 435.236 185.277L445.694 192.64C445.723 192.659 445.747 192.685 445.766 192.714C445.785 192.744 445.798 192.777 445.804 192.811C445.811 192.846 445.81 192.882 445.803 192.916C445.796 192.95 445.782 192.983 445.762 193.012L445.757 193.016Z" fill="#0C0C0C"/>
</g>
<g opacity="0.25">
<path d="M442.69 197.793C442.649 197.85 442.589 197.888 442.521 197.9C442.453 197.911 442.383 197.896 442.327 197.856L430.659 189.64C430.601 189.6 430.562 189.538 430.549 189.469C430.536 189.399 430.551 189.327 430.59 189.268C430.632 189.211 430.692 189.173 430.76 189.16C430.828 189.147 430.899 189.161 430.957 189.199L442.628 197.414C442.657 197.434 442.681 197.459 442.7 197.489C442.719 197.518 442.732 197.551 442.738 197.586C442.745 197.62 442.744 197.656 442.737 197.69C442.73 197.725 442.716 197.757 442.697 197.786L442.69 197.793Z" fill="#0C0C0C"/>
</g>
<g opacity="0.25">
<path d="M439.397 202.987C439.357 203.043 439.296 203.081 439.228 203.093C439.16 203.105 439.091 203.089 439.034 203.049L429.724 196.496C429.669 196.455 429.632 196.393 429.62 196.324C429.609 196.255 429.625 196.185 429.664 196.128C429.703 196.07 429.762 196.031 429.83 196.017C429.897 196.004 429.967 196.018 430.024 196.056L439.334 202.609C439.363 202.629 439.387 202.655 439.406 202.684C439.425 202.714 439.438 202.747 439.444 202.781C439.451 202.816 439.45 202.851 439.443 202.886C439.436 202.92 439.422 202.953 439.403 202.982L439.397 202.987Z" fill="#0C0C0C"/>
</g>
<path d="M469.796 196.893L501.343 251.495L539.836 200.184L571.802 229.473L517.208 301.326L516.85 301.837C514.665 304.878 511.754 307.304 508.391 308.887C505.028 310.469 501.325 311.155 497.629 310.88C493.933 310.605 490.367 309.378 487.266 307.316C484.166 305.253 481.633 302.422 479.907 299.089L435.048 216.53L469.796 196.893Z" fill="#027354"/>
<path d="M504.433 258.06C504.501 258.06 504.569 258.042 504.628 258.008C504.688 257.974 504.738 257.925 504.774 257.866C504.81 257.806 504.83 257.738 504.833 257.669C504.836 257.599 504.821 257.53 504.789 257.468L501.697 251.309C501.647 251.217 501.563 251.148 501.463 251.117C501.364 251.086 501.256 251.096 501.164 251.144C501.071 251.192 501 251.275 500.967 251.375C500.933 251.475 500.939 251.584 500.983 251.68L504.076 257.838C504.109 257.905 504.16 257.961 504.223 258.001C504.286 258.04 504.359 258.06 504.433 258.06Z" fill="#0C0C0C"/>
<path d="M542.052 251.185L541.252 251.231L542.215 268.476L543.015 268.43L542.052 251.185Z" fill="#0C0C0C"/>
<path d="M643.703 126.374C643.703 126.374 645.182 145.57 649.514 152.49C661.986 172.41 665.79 194.942 653.663 206.878C641.537 218.814 563.336 219.9 557.103 192.848C551.855 170.07 562.531 167.489 564.921 148.62C566.002 140.083 569.04 122.171 569.04 122.171" fill="#0A0A0A"/>
<path d="M577.011 188.52C577.148 188.502 578.644 213.761 607.522 211.562C627.514 210.04 634.641 188.484 635.099 188.484C632.944 188.018 629.314 187.342 628.357 186.819C625.209 185.1 621.314 183.312 620.299 177.099C619.715 173.518 620.709 155.2 620.401 151.576L589.714 158.537C590.143 166.189 593.144 183.927 582.626 187.066C580.875 187.589 578.99 188.066 577.011 188.52Z" fill="#E98862"/>
<path opacity="0.52" d="M589.284 179.82C589.764 178.245 590.074 176.622 590.207 174.98C590.544 171.231 590.477 167.456 590.006 163.722C596.244 162.867 602.12 160.25 606.967 156.171C607.536 158.309 610.671 167.654 609.803 169.686C608.162 173.529 600.455 179.82 589.284 179.82Z" fill="#0C0C0C"/>
<path d="M593.352 171.869C605.462 172.917 621.06 167.814 624.116 151.404L626.873 136.596C629.929 120.185 623.925 105.252 608.723 102.326C593.519 99.4014 579.677 110.519 576.62 126.931L575.4 133.486C574.225 139.783 571.742 170.001 593.352 171.869Z" fill="#E98862"/>
<path d="M579.73 134.201C580.783 134.201 581.636 133.334 581.636 132.264C581.636 131.194 580.783 130.327 579.73 130.327C578.678 130.327 577.825 131.194 577.825 132.264C577.825 133.334 578.678 134.201 579.73 134.201Z" fill="#0C0C0C"/>
<path d="M599.257 136.851C600.31 136.851 601.163 135.984 601.163 134.914C601.163 133.845 600.31 132.978 599.257 132.978C598.205 132.978 597.352 133.845 597.352 134.914C597.352 135.984 598.205 136.851 599.257 136.851Z" fill="#0C0C0C"/>
<path d="M588.541 149.115C588.531 149.114 588.522 149.113 588.512 149.111C587.896 148.987 587.287 148.829 586.689 148.638C585.794 148.346 584.623 147.862 584.778 147.043C584.951 146.109 589.35 136.503 589.852 135.412C589.896 135.317 589.975 135.243 590.072 135.207C590.17 135.171 590.277 135.175 590.371 135.22C590.465 135.264 590.538 135.345 590.573 135.444C590.609 135.542 590.604 135.652 590.56 135.747C588.684 139.838 585.662 146.565 585.546 147.189C585.646 147.481 587.13 148.035 588.659 148.33C588.759 148.348 588.848 148.405 588.907 148.489C588.966 148.573 588.991 148.677 588.976 148.779C588.961 148.881 588.908 148.973 588.827 149.036C588.746 149.098 588.644 149.126 588.543 149.114L588.541 149.115Z" fill="#0C0C0C"/>
<path d="M590.793 156.2C588.313 155.873 585.943 154.958 583.875 153.529C583.788 153.472 583.727 153.382 583.706 153.279C583.684 153.176 583.704 153.068 583.761 152.98C583.817 152.892 583.906 152.83 584.007 152.808C584.109 152.787 584.214 152.807 584.301 152.864C588.777 155.828 593.225 156.307 597.163 154.251C597.242 154.207 597.324 154.167 597.408 154.132C597.505 154.097 597.612 154.102 597.706 154.146C597.8 154.191 597.872 154.272 597.907 154.371C597.943 154.47 597.938 154.579 597.894 154.674C597.85 154.769 597.77 154.843 597.673 154.879C597.642 154.892 597.59 154.92 597.519 154.957C595.449 156.042 593.107 156.475 590.793 156.2Z" fill="#0C0C0C"/>
<path d="M639.036 141.756L625.406 139.217C615.084 134.972 611.964 116.812 611.964 116.812C611.964 116.812 599.426 129.231 569.044 122.168C569.044 122.168 575.137 79.1049 620.026 91.6258C634.5 95.6637 644.888 110.488 643.594 130.298C642.683 144.181 639.036 141.756 639.036 141.756Z" fill="#0A0A0A"/>
<path d="M622.241 156.222C626.861 157.11 631.542 152.807 632.417 148.108C633.291 143.41 630.028 140.103 625.407 139.214L622.44 141.903L618.268 155.455L622.241 156.222Z" fill="#E98862"/>
<path d="M587.066 127.562C585.718 126.678 584.161 126.178 582.557 126.116C581.768 126.08 580.979 126.165 580.214 126.368C579.457 126.565 578.727 126.859 578.042 127.242C577.955 127.295 577.89 127.38 577.861 127.48C577.832 127.579 577.84 127.686 577.885 127.78C577.929 127.873 578.006 127.946 578.101 127.985C578.196 128.023 578.302 128.025 578.397 127.988L578.426 127.975C579.059 127.66 579.729 127.427 580.419 127.281C581.101 127.133 581.802 127.09 582.497 127.155C583.875 127.272 585.199 127.758 586.333 128.564L586.37 128.591C586.434 128.646 586.509 128.686 586.59 128.71C586.671 128.734 586.756 128.741 586.839 128.731C586.923 128.72 587.003 128.692 587.076 128.649C587.148 128.605 587.211 128.547 587.26 128.478C587.31 128.409 587.345 128.33 587.363 128.246C587.381 128.163 587.382 128.076 587.366 127.992C587.35 127.908 587.317 127.829 587.269 127.758C587.222 127.688 587.16 127.628 587.089 127.582L587.066 127.562Z" fill="#0C0C0C"/>
<path d="M599.222 130.471C600.565 130.137 601.972 130.169 603.299 130.566C603.97 130.761 604.609 131.058 605.192 131.447C605.784 131.837 606.325 132.301 606.803 132.828L606.824 132.851C606.901 132.92 606.999 132.957 607.102 132.956C607.204 132.955 607.302 132.915 607.376 132.845C607.451 132.774 607.497 132.677 607.505 132.574C607.513 132.47 607.483 132.367 607.421 132.285C606.918 131.677 606.342 131.135 605.707 130.673C605.066 130.203 604.36 129.834 603.611 129.577C602.094 129.047 600.464 128.941 598.893 129.272C598.743 129.315 598.615 129.415 598.535 129.551C598.455 129.686 598.428 129.848 598.461 130.003C598.494 130.158 598.583 130.294 598.711 130.384C598.839 130.475 598.996 130.512 599.15 130.489L599.175 130.483L599.222 130.471Z" fill="#0C0C0C"/>
<path d="M590.266 159.926C589.817 159.874 589.372 159.783 588.938 159.655C588.839 159.626 588.755 159.558 588.704 159.466C588.654 159.374 588.642 159.265 588.671 159.164C588.7 159.063 588.767 158.977 588.857 158.926C588.948 158.875 589.055 158.863 589.154 158.892C591.768 159.655 593.254 158.644 593.317 158.6C593.402 158.54 593.507 158.516 593.609 158.534C593.711 158.552 593.801 158.611 593.861 158.697C593.921 158.783 593.944 158.89 593.926 158.994C593.908 159.097 593.851 159.19 593.766 159.25C592.711 159.879 591.474 160.118 590.266 159.926Z" fill="#0C0C0C"/>
<path d="M625.377 139.042L625.514 138.658C608.245 132.358 612.468 115.136 612.512 114.962L612.125 114.859C612.078 115.036 607.758 132.613 625.377 139.042Z" fill="#0C0C0C"/>
<path opacity="0.1" d="M604.689 148.026C604.846 146.54 603.358 145.158 601.364 144.94C599.37 144.722 597.626 145.75 597.469 147.236C597.312 148.723 598.8 150.104 600.794 150.322C602.788 150.54 604.531 149.512 604.689 148.026Z" fill="#0C0C0C"/>
<path opacity="0.1" d="M579.692 144.638C579.531 146.122 577.788 147.149 575.794 146.933C575.449 146.896 575.11 146.822 574.78 146.713C574.668 144.946 574.644 143.245 574.676 141.673C575.227 141.526 575.8 141.485 576.366 141.552C578.358 141.767 579.848 143.148 579.692 144.638Z" fill="#0C0C0C"/>
<path d="M541.132 244.135C542.042 254.995 546.466 322.495 547.342 335.874L663.058 336.124C663.74 324.058 671.605 271.306 674.187 247.713C676.652 225.201 681.488 213.93 677.94 207.274C672.148 196.397 656.322 190.111 645.529 188.626C638.939 187.72 629.027 187.07 629.027 187.07C629.027 187.07 628.189 204.322 608.178 205.283C580.938 206.588 582.757 187.07 582.622 187.07C578.21 187.07 553 189.908 546.833 193.624C530.03 203.735 539.201 221.122 541.132 244.135Z" fill="#027354"/>
<path d="M466.022 251.721L477.176 306.818C477.403 307.937 478 308.943 478.868 309.668C479.736 310.394 480.822 310.795 481.946 310.804L558.752 311.469C559.485 311.475 560.21 311.315 560.873 311C561.537 310.685 562.123 310.222 562.589 309.647C563.054 309.072 563.387 308.398 563.563 307.676C563.739 306.953 563.754 306.199 563.606 305.47L552.452 250.373C552.225 249.255 551.628 248.249 550.76 247.523C549.892 246.798 548.805 246.397 547.682 246.387L470.876 245.722C470.143 245.716 469.418 245.876 468.755 246.191C468.091 246.506 467.505 246.969 467.039 247.544C466.574 248.119 466.241 248.793 466.065 249.515C465.889 250.238 465.874 250.992 466.022 251.721Z" fill="#292A2E"/>
<path d="M537.641 290.857C537.6 291.583 537.819 292.299 538.256 292.873C538.694 293.448 539.321 293.843 540.022 293.985L542.386 294.515C542.344 294.529 542.306 294.553 542.275 294.586C542.244 294.619 542.222 294.658 542.209 294.702C542.204 294.753 542.215 294.804 542.241 294.848C541.673 295.01 541.169 295.349 540.798 295.816C540.427 296.283 540.209 296.856 540.174 297.455C540.171 298.153 540.399 298.832 540.822 299.382C541.245 299.932 541.839 300.32 542.506 300.485L562.472 304.993C563.493 305.224 564.536 305.341 565.582 305.339C567.912 305.339 570.207 304.763 572.27 303.66C574.332 302.558 576.1 300.962 577.42 299.01C578.82 296.946 579.372 294.407 578.959 291.935C578.546 289.463 577.2 287.253 575.208 285.774L558.224 273.153C557.85 272.875 557.416 272.693 556.958 272.623L558.52 280.337L558.104 280.239L558.015 280.223L544.991 277.531C543.54 277.206 541.552 277.739 541.296 279.421C541.158 280.063 541.238 280.734 541.523 281.324C541.808 281.914 542.281 282.389 542.865 282.671C542.857 282.679 542.841 282.687 542.841 282.704C542.841 282.72 542.849 282.728 542.849 282.744L540.597 282.239C540.185 282.147 539.758 282.148 539.347 282.243C538.936 282.338 538.551 282.525 538.219 282.79C537.887 283.054 537.617 283.39 537.429 283.774C537.24 284.157 537.137 284.578 537.128 285.007C537.128 285.691 537.361 286.355 537.788 286.885C538.214 287.415 538.808 287.779 539.468 287.914L540.438 288.134C540.446 288.167 540.438 288.199 540.454 288.224C539.747 288.23 539.068 288.502 538.548 288.989C538.027 289.476 537.704 290.142 537.641 290.857Z" fill="#E98862"/>
<g opacity="0.25">
<path d="M555.817 285.418C555.802 285.486 555.761 285.545 555.703 285.583C555.645 285.621 555.575 285.634 555.508 285.621L543.046 283.023C543.011 283.017 542.978 283.003 542.948 282.984C542.919 282.965 542.893 282.939 542.874 282.91C542.854 282.88 542.84 282.847 542.833 282.812C542.826 282.777 542.826 282.741 542.833 282.706C542.841 282.671 542.854 282.637 542.874 282.608C542.894 282.578 542.92 282.553 542.949 282.534C542.979 282.515 543.012 282.502 543.047 282.496C543.082 282.489 543.117 282.491 543.151 282.499L555.614 285.096C555.648 285.103 555.68 285.117 555.708 285.137C555.737 285.156 555.761 285.182 555.78 285.211C555.799 285.24 555.813 285.273 555.819 285.307C555.826 285.342 555.825 285.377 555.818 285.412L555.817 285.418Z" fill="#0C0C0C"/>
</g>
<g opacity="0.25">
<path d="M554.842 291.036C554.826 291.104 554.785 291.163 554.727 291.2C554.669 291.238 554.599 291.251 554.532 291.237L540.624 288.339C540.59 288.332 540.558 288.318 540.529 288.298C540.5 288.279 540.476 288.253 540.457 288.224C540.438 288.195 540.425 288.162 540.418 288.128C540.412 288.093 540.412 288.058 540.419 288.023C540.435 287.955 540.476 287.896 540.534 287.857C540.592 287.818 540.662 287.803 540.73 287.815L554.638 290.714C554.706 290.728 554.766 290.77 554.804 290.829C554.843 290.888 554.856 290.961 554.842 291.03L554.842 291.036Z" fill="#0C0C0C"/>
</g>
<g opacity="0.25">
<path d="M553.82 297.125C553.804 297.194 553.763 297.253 553.705 297.291C553.647 297.329 553.577 297.342 553.51 297.328L542.416 295.016C542.348 295.001 542.289 294.959 542.251 294.9C542.214 294.841 542.2 294.769 542.214 294.701C542.228 294.632 542.269 294.571 542.326 294.532C542.384 294.493 542.454 294.479 542.522 294.492L553.616 296.804C553.684 296.818 553.744 296.859 553.782 296.919C553.821 296.978 553.834 297.05 553.82 297.119L553.82 297.125Z" fill="#0C0C0C"/>
</g>
<path d="M563.708 313.018L672.028 332.912C675.408 333.285 678.828 332.858 682.018 331.664C685.208 330.469 688.083 328.539 690.416 326.025C692.749 323.512 694.478 320.483 695.466 317.177C696.454 313.871 696.674 310.377 696.11 306.969L680.946 215.365C680.474 212.461 679.443 209.682 677.912 207.184C676.381 204.687 674.38 202.521 672.024 200.811C669.668 199.1 667.003 197.879 664.182 197.218C661.361 196.556 658.439 196.467 655.584 196.955C652.728 197.443 649.996 198.499 647.543 200.062C645.09 201.626 642.965 203.666 641.289 206.065C639.613 208.464 638.42 211.176 637.777 214.046C637.135 216.915 637.056 219.884 637.544 222.784L647.888 285.846L568.47 275.71L563.708 313.018Z" fill="#027354"/>
<path d="M672.029 333.319C672.129 333.318 672.224 333.279 672.297 333.21C672.37 333.141 672.415 333.047 672.424 332.946C672.432 332.846 672.403 332.745 672.343 332.665C672.283 332.584 672.195 332.529 672.097 332.511L564.15 312.686L568.812 276.165L647.828 286.25C647.891 286.259 647.954 286.252 648.013 286.231C648.073 286.21 648.126 286.174 648.169 286.128C648.212 286.083 648.244 286.028 648.263 285.967C648.281 285.907 648.286 285.844 648.276 285.781L641.707 245.48C641.699 245.427 641.681 245.376 641.653 245.331C641.625 245.285 641.589 245.245 641.546 245.214C641.503 245.183 641.454 245.161 641.403 245.149C641.352 245.137 641.298 245.136 641.246 245.145C641.141 245.163 641.048 245.223 640.986 245.31C640.924 245.398 640.899 245.508 640.917 245.614L647.399 285.376L568.52 275.31C568.415 275.297 568.309 275.327 568.225 275.392C568.141 275.458 568.087 275.555 568.072 275.661L563.31 312.969C563.297 313.072 563.323 313.177 563.384 313.262C563.445 313.346 563.535 313.403 563.636 313.422L671.957 333.312C671.981 333.317 672.005 333.319 672.029 333.319Z" fill="#0C0C0C"/>
<path d="M647.952 285.447L647.825 286.252L654.792 287.386L654.919 286.581L647.952 285.447Z" fill="#0C0C0C"/>
<path d="M744.524 627.335H0.477643C0.350964 627.335 0.229474 627.284 0.139898 627.193C0.0503229 627.102 0 626.979 0 626.85C0 626.721 0.0503229 626.598 0.139898 626.507C0.229474 626.416 0.350964 626.365 0.477643 626.365H744.522C744.649 626.365 744.771 626.416 744.86 626.507C744.95 626.598 745 626.721 745 626.85C745 626.979 744.95 627.102 744.86 627.193C744.771 627.284 744.649 627.335 744.522 627.335H744.524Z" fill="#292A2E"/>
<g opacity="0.65">
<path d="M744.524 627.335H0.477643C0.350964 627.335 0.229474 627.284 0.139898 627.193C0.0503229 627.102 0 626.979 0 626.85C0 626.721 0.0503229 626.598 0.139898 626.507C0.229474 626.416 0.350964 626.365 0.477643 626.365H744.522C744.649 626.365 744.771 626.416 744.86 626.507C744.95 626.598 745 626.721 745 626.85C745 626.979 744.95 627.102 744.86 627.193C744.771 627.284 744.649 627.335 744.522 627.335H744.524Z" fill="#292A2E"/>
</g>
<path d="M46.2322 627.746L44.8921 627.484L65.8374 415.961L67.1775 416.223L46.2322 627.746Z" fill="#494949"/>
<path d="M124.223 627.746L122.883 627.484L143.827 415.961L145.168 416.223L124.223 627.746Z" fill="#494949"/>
<path d="M296.616 627.746L297.956 627.484L277.011 415.961L275.671 416.223L296.616 627.746Z" fill="#494949"/>
<path d="M218.626 627.746L219.966 627.484L199.021 415.961L197.681 416.223L218.626 627.746Z" fill="#494949"/>
<path d="M190.848 322.87L189.496 323.053L201.731 416.186L203.084 416.002L190.848 322.87Z" fill="#494949"/>
<path d="M50.4054 322.868L49.0527 323.052L61.2885 416.185L62.6412 416.001L50.4054 322.868Z" fill="#494949"/>
<path d="M202.968 409.272H65.5976C61.8913 409.272 58.8867 412.325 58.8867 416.092V416.092C58.8867 419.859 61.8913 422.913 65.5976 422.913H202.968C206.674 422.913 209.679 419.859 209.679 416.092V416.092C209.679 412.325 206.674 409.272 202.968 409.272Z" fill="#292A2E"/>
<path opacity="0.8" d="M202.968 409.272H65.5976C61.8913 409.272 58.8867 412.325 58.8867 416.092V416.092C58.8867 419.859 61.8913 422.913 65.5976 422.913H202.968C206.674 422.913 209.679 419.859 209.679 416.092V416.092C209.679 412.325 206.674 409.272 202.968 409.272Z" fill="white"/>
<path d="M202.967 423.605H65.5973C64.6264 423.605 63.6651 423.411 62.7681 423.033C61.8711 422.656 61.056 422.102 60.3695 421.405C59.683 420.707 59.1384 419.879 58.7669 418.967C58.3953 418.056 58.2041 417.079 58.2041 416.092C58.2041 415.105 58.3953 414.128 58.7669 413.217C59.1384 412.305 59.683 411.477 60.3695 410.779C61.056 410.081 61.8711 409.528 62.7681 409.15C63.6651 408.773 64.6264 408.578 65.5973 408.578H202.967C204.928 408.578 206.809 409.37 208.195 410.779C209.582 412.188 210.361 414.099 210.361 416.092C210.361 418.085 209.582 419.996 208.195 421.405C206.809 422.814 204.928 423.605 202.967 423.605ZM65.5973 409.966C64.8057 409.966 64.0217 410.124 63.2903 410.432C62.5589 410.74 61.8943 411.192 61.3345 411.76C60.7747 412.329 60.3307 413.005 60.0277 413.748C59.7247 414.491 59.5688 415.288 59.5688 416.093C59.5688 416.897 59.7247 417.694 60.0277 418.437C60.3307 419.18 60.7747 419.856 61.3345 420.425C61.8943 420.994 62.5589 421.445 63.2903 421.753C64.0217 422.061 64.8057 422.219 65.5973 422.219H202.967C204.566 422.219 206.1 421.574 207.23 420.425C208.361 419.276 208.996 417.717 208.996 416.093C208.996 414.468 208.361 412.909 207.23 411.76C206.1 410.611 204.566 409.966 202.967 409.966H65.5973Z" fill="#292A2E"/>
<path d="M278.364 409.272H140.994C137.287 409.272 134.283 412.325 134.283 416.092V416.092C134.283 419.859 137.287 422.913 140.994 422.913H278.364C282.07 422.913 285.075 419.859 285.075 416.092V416.092C285.075 412.325 282.07 409.272 278.364 409.272Z" fill="white"/>
<path d="M278.363 423.605H140.993C140.022 423.605 139.061 423.411 138.164 423.033C137.267 422.656 136.452 422.102 135.766 421.405C135.079 420.707 134.534 419.879 134.163 418.967C133.791 418.056 133.6 417.079 133.6 416.092C133.6 415.105 133.791 414.128 134.163 413.217C134.534 412.305 135.079 411.477 135.766 410.779C136.452 410.081 137.267 409.528 138.164 409.15C139.061 408.773 140.022 408.578 140.993 408.578H278.363C279.334 408.578 280.296 408.773 281.193 409.15C282.09 409.528 282.905 410.081 283.591 410.779C284.278 411.477 284.822 412.305 285.194 413.217C285.565 414.128 285.757 415.105 285.757 416.092C285.757 417.079 285.565 418.056 285.194 418.967C284.822 419.879 284.278 420.707 283.591 421.405C282.905 422.102 282.09 422.656 281.193 423.033C280.296 423.411 279.334 423.605 278.363 423.605ZM140.993 409.966C140.202 409.966 139.418 410.124 138.686 410.432C137.955 410.74 137.29 411.192 136.731 411.76C136.171 412.329 135.727 413.005 135.424 413.748C135.121 414.491 134.965 415.288 134.965 416.093C134.965 416.897 135.121 417.694 135.424 418.437C135.727 419.18 136.171 419.856 136.731 420.425C137.29 420.994 137.955 421.445 138.686 421.753C139.418 422.061 140.202 422.219 140.993 422.219H278.363C279.155 422.219 279.939 422.061 280.67 421.753C281.402 421.445 282.066 420.994 282.626 420.425C283.186 419.856 283.63 419.18 283.933 418.437C284.236 417.694 284.392 416.897 284.392 416.093C284.392 415.288 284.236 414.491 283.933 413.748C283.63 413.005 283.186 412.329 282.626 411.76C282.066 411.192 281.402 410.74 280.67 410.432C279.939 410.124 279.155 409.966 278.363 409.966H140.993Z" fill="#292A2E"/>
<path d="M183.324 322.959H50.0974C47.9191 322.959 45.8154 322.153 44.1787 320.693C42.5421 319.232 41.4844 317.216 41.203 315.021L32.3905 246.243C32.2258 244.958 32.3328 243.651 32.7045 242.411C33.0761 241.171 33.7038 240.025 34.5455 239.051C35.3873 238.077 36.4239 237.297 37.5861 236.762C38.7482 236.227 40.0092 235.951 41.2849 235.951H174.511C176.689 235.951 178.793 236.756 180.43 238.217C182.066 239.678 183.124 241.694 183.405 243.889L192.217 312.665C192.382 313.951 192.276 315.257 191.904 316.498C191.533 317.738 190.905 318.884 190.064 319.858C189.222 320.832 188.185 321.613 187.023 322.148C185.861 322.683 184.599 322.959 183.324 322.959Z" fill="#292A2E"/>
<path opacity="0.8" d="M183.324 322.959H50.0974C47.9191 322.959 45.8154 322.153 44.1787 320.693C42.5421 319.232 41.4844 317.216 41.203 315.021L32.3905 246.243C32.2258 244.958 32.3328 243.651 32.7045 242.411C33.0761 241.171 33.7038 240.025 34.5455 239.051C35.3873 238.077 36.4239 237.297 37.5861 236.762C38.7482 236.227 40.0092 235.951 41.2849 235.951H174.511C176.689 235.951 178.793 236.756 180.43 238.217C182.066 239.678 183.124 241.694 183.405 243.889L192.217 312.665C192.382 313.951 192.276 315.257 191.904 316.498C191.533 317.738 190.905 318.884 190.064 319.858C189.222 320.832 188.185 321.613 187.023 322.148C185.861 322.683 184.599 322.959 183.324 322.959Z" fill="white"/>
<path d="M183.324 323.653H50.0974C47.7548 323.647 45.4937 322.778 43.7336 321.208C41.9734 319.637 40.8338 317.47 40.5261 315.11L31.7142 246.335C31.5368 244.951 31.6518 243.545 32.0516 242.211C32.4514 240.876 33.1268 239.643 34.0326 238.595C34.9384 237.547 36.0539 236.707 37.3045 236.132C38.5551 235.556 39.9121 235.259 41.2848 235.259H174.511C176.854 235.264 179.115 236.133 180.875 237.704C182.635 239.275 183.774 241.441 184.082 243.801L192.894 312.578C193.071 313.961 192.956 315.367 192.557 316.701C192.157 318.036 191.481 319.268 190.576 320.317C189.67 321.365 188.554 322.205 187.304 322.78C186.053 323.355 184.696 323.653 183.324 323.653ZM41.2848 236.646C40.1062 236.646 38.9412 236.901 37.8675 237.395C36.7938 237.889 35.8361 238.61 35.0583 239.51C34.2806 240.41 33.7007 241.469 33.3574 242.614C33.0141 243.76 32.9152 244.967 33.0673 246.155L41.8798 314.931C42.1438 316.957 43.1222 318.818 44.6334 320.167C46.1446 321.515 48.0861 322.261 50.0974 322.266H183.324C184.502 322.266 185.667 322.01 186.741 321.516C187.815 321.022 188.772 320.301 189.55 319.401C190.328 318.501 190.908 317.443 191.251 316.297C191.594 315.151 191.693 313.944 191.541 312.756L182.732 243.98C182.468 241.954 181.489 240.094 179.978 238.745C178.467 237.396 176.526 236.65 174.514 236.646H41.2848Z" fill="#292A2E"/>
<path d="M190.856 322.959H57.6302C55.452 322.959 53.3483 322.153 51.7118 320.693C50.0752 319.232 49.0176 317.216 48.7364 315.021L39.9239 246.243C39.7592 244.958 39.8663 243.651 40.2379 242.411C40.6095 241.171 41.2372 240.025 42.079 239.051C42.9208 238.077 43.9574 237.297 45.1195 236.762C46.2817 236.227 47.5427 235.951 48.8183 235.951H182.045C184.223 235.951 186.326 236.756 187.963 238.217C189.599 239.678 190.657 241.694 190.938 243.889L199.751 312.665C199.916 313.951 199.809 315.257 199.437 316.498C199.066 317.738 198.438 318.884 197.597 319.858C196.755 320.832 195.718 321.613 194.556 322.148C193.393 322.683 192.132 322.959 190.856 322.959Z" fill="white"/>
<path d="M190.856 323.653H57.6301C55.2876 323.647 53.0266 322.778 51.2666 321.207C49.5066 319.636 48.3671 317.47 48.0595 315.11L39.247 246.335C39.0698 244.951 39.185 243.545 39.5849 242.211C39.9848 240.876 40.6603 239.644 41.5661 238.595C42.472 237.547 43.5874 236.707 44.838 236.132C46.0886 235.557 47.4455 235.259 48.8183 235.259H182.044C184.386 235.264 186.647 236.133 188.408 237.704C190.168 239.275 191.307 241.441 191.615 243.801L200.428 312.578C200.605 313.961 200.489 315.367 200.089 316.701C199.689 318.036 199.014 319.268 198.108 320.316C197.202 321.365 196.087 322.204 194.836 322.78C193.586 323.355 192.229 323.653 190.856 323.653ZM48.8183 236.646C47.6395 236.646 46.4742 236.901 45.4002 237.395C44.3263 237.889 43.3683 238.61 42.5904 239.51C41.8125 240.41 41.2324 241.468 40.889 242.614C40.5455 243.76 40.4466 244.968 40.5987 246.156L49.4106 314.931C49.6749 316.958 50.6536 318.818 52.1652 320.167C53.6768 321.516 55.6185 322.261 57.6301 322.266H190.856C192.035 322.266 193.2 322.01 194.274 321.516C195.347 321.022 196.305 320.301 197.083 319.401C197.861 318.501 198.44 317.443 198.784 316.297C199.127 315.151 199.226 313.944 199.074 312.756L190.261 243.98C189.997 241.954 189.019 240.094 187.508 238.745C185.996 237.396 184.055 236.65 182.044 236.646H48.8183Z" fill="#292A2E"/>
<path d="M176.171 129.841C176.171 129.841 185.025 123.05 187.218 107.418C188.917 95.315 177.931 103.157 177.931 103.157C177.931 103.157 179.07 94.4295 172.813 95.2956C166.556 96.1617 163.056 105.329 163.056 105.329" fill="#0C0C0C"/>
<path d="M140.477 96.3198C140.477 96.3198 109.434 99.7025 120.656 142.452L123.402 142.639L128.978 143.019" fill="#0C0C0C"/>
<path d="M170.972 187.092C170.835 187.074 169.321 212.611 140.126 210.387C119.915 208.848 112.708 187.056 112.246 187.056C114.424 186.585 117.118 185.871 118.187 185.625C120.52 185.075 122.633 183.816 124.244 182.016C125.855 180.216 126.889 177.96 127.208 175.548C127.799 171.928 126.799 153.408 127.105 149.746L158.129 156.788C157.695 164.524 154.662 182.457 165.294 185.631C167.065 186.152 168.971 186.636 170.972 187.092Z" fill="#E98862"/>
<path opacity="0.52" d="M158.564 178.298C158.078 176.707 157.765 175.066 157.631 173.405C157.29 169.615 157.359 165.799 157.836 162.024C151.53 161.159 145.589 158.514 140.689 154.39C140.112 156.552 136.944 165.999 137.823 168.054C139.478 171.938 147.269 178.298 158.564 178.298Z" fill="#0C0C0C"/>
<path d="M152.162 173.244C139.923 172.129 125.273 164.269 125.062 147.385L124.868 132.15C124.657 115.265 133.212 101.465 148.855 101.263C164.497 101.061 176.361 114.598 176.573 131.482L176.657 138.227C176.646 140.543 176.48 142.856 176.16 145.149C175.358 151.217 174.113 160.441 170.061 166.682C166.237 172.574 159.98 173.957 152.162 173.244Z" fill="#E98862"/>
<path d="M157.839 157.811C160.365 157.927 162.882 157.438 165.188 156.384C165.236 156.363 165.279 156.333 165.315 156.296C165.352 156.258 165.38 156.214 165.4 156.165C165.419 156.116 165.429 156.064 165.428 156.011C165.428 155.958 165.417 155.906 165.396 155.858C165.376 155.809 165.347 155.765 165.31 155.729C165.273 155.692 165.229 155.663 165.181 155.643C165.133 155.623 165.081 155.614 165.029 155.614C164.977 155.615 164.926 155.626 164.879 155.646C159.91 157.796 155.399 157.484 151.833 154.735C151.762 154.677 151.687 154.623 151.61 154.573C151.52 154.53 151.418 154.523 151.323 154.553C151.229 154.583 151.149 154.648 151.099 154.736C151.05 154.823 151.034 154.926 151.056 155.024C151.078 155.123 151.135 155.209 151.217 155.266C151.245 155.285 151.292 155.322 151.353 155.372C153.228 156.823 155.486 157.672 157.839 157.811Z" fill="#0C0C0C"/>
<path d="M157.722 161.615C158.179 161.643 158.637 161.632 159.091 161.582C159.193 161.568 159.286 161.514 159.349 161.431C159.413 161.349 159.442 161.245 159.431 161.141C159.42 161.037 159.37 160.941 159.291 160.875C159.211 160.808 159.11 160.775 159.007 160.783C156.274 161.079 154.968 159.806 154.913 159.752C154.838 159.68 154.739 159.64 154.636 159.641C154.533 159.643 154.435 159.685 154.362 159.758C154.289 159.832 154.248 159.932 154.246 160.036C154.244 160.141 154.283 160.242 154.354 160.318C155.295 161.133 156.486 161.591 157.722 161.615Z" fill="#0C0C0C"/>
<path d="M171.409 141.474C172.474 141.474 173.336 140.597 173.336 139.515C173.336 138.434 172.474 137.557 171.409 137.557C170.345 137.557 169.482 138.434 169.482 139.515C169.482 140.597 170.345 141.474 171.409 141.474Z" fill="#0C0C0C"/>
<path d="M152.583 140.273C153.647 140.273 154.51 139.396 154.51 138.314C154.51 137.233 153.647 136.356 152.583 136.356C151.519 136.356 150.656 137.233 150.656 138.314C150.656 139.396 151.519 140.273 152.583 140.273Z" fill="#0C0C0C"/>
<path d="M126.097 152.516C121.343 152.578 117.425 147.459 117.363 142.628C117.3 137.798 121.123 135.083 125.877 135.021L128.367 138.227L130.182 152.463L126.097 152.516Z" fill="#E98862"/>
<path d="M130.827 144.753C130.827 144.753 132.431 120.862 139.561 119.387C144.308 118.404 155.822 125.248 166.486 123.181C171.151 122.28 175.58 123.45 176.031 125.69C176.21 126.577 179.116 113.832 171.81 104.162C165.993 96.4647 146.957 94.2873 138.297 96.8114C114.317 103.802 124.898 136.072 124.898 136.072L125.968 144.309L130.827 144.753Z" fill="#0C0C0C"/>
<path d="M160.713 152.173H160.743C162.275 152.157 164.844 151.957 164.833 150.792C164.823 149.828 162.12 139.437 161.812 138.255C161.785 138.154 161.72 138.067 161.631 138.014C161.541 137.961 161.435 137.947 161.335 137.973C161.235 138 161.149 138.067 161.097 138.158C161.045 138.249 161.031 138.357 161.057 138.459C162.258 143.06 164.046 150.144 164.053 150.802C163.905 151.079 162.322 151.364 160.737 151.381C160.635 151.381 160.538 151.421 160.465 151.493C160.392 151.565 160.349 151.663 160.346 151.766C160.343 151.869 160.38 151.969 160.449 152.045C160.517 152.121 160.612 152.167 160.713 152.174V152.173Z" fill="#0C0C0C"/>
<path d="M165.94 128.897C167.55 128.447 169.249 128.447 170.859 128.897C171.65 129.114 172.404 129.449 173.097 129.893C173.782 130.328 174.41 130.849 174.966 131.444C175.069 131.55 175.127 131.692 175.13 131.84C175.132 131.989 175.077 132.133 174.978 132.242C174.878 132.351 174.741 132.416 174.595 132.425C174.449 132.434 174.306 132.386 174.194 132.29L174.16 132.259C173.645 131.775 173.071 131.358 172.454 131.019C171.848 130.681 171.195 130.439 170.518 130.301C169.185 130.017 167.802 130.095 166.508 130.528L166.454 130.548C166.348 130.586 166.236 130.602 166.124 130.596C166.012 130.59 165.903 130.562 165.802 130.513C165.701 130.463 165.61 130.395 165.535 130.31C165.46 130.225 165.402 130.126 165.365 130.019C165.327 129.912 165.311 129.798 165.317 129.684C165.323 129.57 165.351 129.459 165.399 129.356C165.448 129.253 165.515 129.161 165.599 129.085C165.682 129.009 165.779 128.95 165.885 128.912C165.903 128.908 165.923 128.902 165.94 128.897Z" fill="#0C0C0C"/>
<path d="M154.539 129.883C153.314 129.278 151.953 129.012 150.595 129.114C149.906 129.159 149.227 129.311 148.583 129.563C147.927 129.816 147.305 130.152 146.731 130.562L146.694 130.587C146.571 130.671 146.421 130.703 146.275 130.676C146.129 130.649 145.999 130.565 145.913 130.442C145.827 130.319 145.792 130.166 145.816 130.017C145.839 129.868 145.919 129.735 146.039 129.645C146.668 129.13 147.359 128.699 148.095 128.361C148.84 128.015 149.631 127.784 150.443 127.677C152.098 127.448 153.782 127.678 155.319 128.341C155.527 128.433 155.691 128.605 155.774 128.82C155.857 129.034 155.853 129.274 155.763 129.485C155.672 129.697 155.503 129.863 155.292 129.948C155.081 130.032 154.845 130.028 154.637 129.936C154.621 129.929 154.605 129.922 154.589 129.913L154.539 129.883Z" fill="#0C0C0C"/>
<path d="M163.649 112.45C167.168 111.702 169.143 106.83 168.061 101.567C166.979 96.3031 163.249 92.642 159.73 93.3891C156.211 94.1363 154.236 99.0087 155.318 104.272C156.4 109.536 160.13 113.197 163.649 112.45Z" fill="#0C0C0C"/>
<path d="M359.901 591.105C359.901 591.105 363.56 610.378 381.317 611.453C399.074 612.527 395.223 626.902 395.223 626.902H327.367V592.449L359.901 591.105Z" fill="#027354"/>
<path d="M230.811 578.936C230.811 578.936 225.72 597.871 241.189 606.801C256.657 615.73 246.957 626.902 246.957 626.902L186.069 596.46L201.034 565.545L230.811 578.936Z" fill="#027354"/>
<path d="M193.098 573.588L244.444 408.97H151.372C132.676 408.97 124.883 392.858 124.883 373.859C124.883 354.86 143.262 338.205 161.957 338.205H287.57C298.973 338.205 311.759 345.292 318.017 354.979C324.275 364.666 322.584 379.678 318.05 390.311L235.827 593.26" fill="#262626"/>
<path opacity="0.8" d="M193.098 573.588L244.444 408.97H151.372C132.676 408.97 124.883 392.858 124.883 373.859C124.883 354.86 143.262 338.205 161.957 338.205H287.57C298.973 338.205 311.759 345.292 318.017 354.979C324.275 364.666 322.584 379.678 318.05 390.311L235.827 593.26" fill="#0A0A0A"/>
<path d="M323.466 609.003L237.614 408.97L124.884 408.963C98.4689 406.859 86.3723 392.146 86.7564 373.152C87.1358 354.397 96.4799 335.874 114.851 335.874H266.788C280.381 336.158 291.074 351.423 296.117 364.253L367.49 596.757" fill="#262626"/>
<path d="M79.0661 336.103C79.0661 336.103 74.0597 369.282 81.9954 387.729C91.9024 410.758 129.041 408.963 129.041 408.963L126.948 335.874L79.0661 336.103Z" fill="#262626"/>
<path d="M299.345 335.451L219.715 318.681C216.397 317.983 213.306 316.445 210.727 314.21C208.149 311.975 206.167 309.116 204.965 305.896L173.645 222.021C172.706 219.507 172.264 216.829 172.343 214.141C172.422 211.454 173.022 208.808 174.107 206.355C175.193 203.903 176.743 201.692 178.669 199.848C180.596 198.005 182.861 196.565 185.334 195.611C187.808 194.657 190.443 194.207 193.088 194.288C195.733 194.368 198.336 194.978 200.749 196.081C203.162 197.184 205.338 198.759 207.152 200.717C208.966 202.675 210.383 204.976 211.322 207.491L238.72 280.857L307.523 295.346C307.523 295.346 300.727 335.741 299.345 335.451Z" fill="#027354"/>
<path d="M207.245 243.321C206.325 254.3 199.808 322.797 198.921 336.32H79.1182C78.4298 324.123 76.1951 272.338 73.5851 248.487C71.0932 225.727 70.1897 212.739 73.0597 205.666C78.1213 193.192 90.7877 188.703 101.698 187.202C108.36 186.285 118.38 185.627 118.38 185.627C118.38 185.627 119.229 203.07 139.459 204.041C166.998 205.358 165.159 185.627 165.295 185.627C169.757 185.627 194.042 188.925 200.114 192.947C208.69 198.628 211.225 206.371 211.326 213.483C211.441 221.673 208.29 230.869 207.245 243.321Z" fill="#027354"/>
<path d="M202.534 299.292C202.524 299.292 202.515 299.292 202.505 299.292C202.415 299.284 202.332 299.241 202.273 299.17C202.215 299.1 202.186 299.01 202.194 298.918L205.304 260.948C205.306 260.903 205.318 260.858 205.338 260.817C205.358 260.776 205.387 260.739 205.421 260.71C205.455 260.68 205.496 260.658 205.539 260.645C205.582 260.631 205.627 260.627 205.672 260.632C205.762 260.64 205.845 260.684 205.904 260.754C205.962 260.824 205.991 260.914 205.983 261.006L202.874 298.976C202.866 299.062 202.827 299.142 202.764 299.201C202.701 299.259 202.619 299.292 202.534 299.292Z" fill="#0C0C0C"/>
<path d="M259.595 322.078L285.882 239.958C286.344 238.515 287.244 237.257 288.452 236.365C289.66 235.474 291.115 234.993 292.608 234.993H399.704C400.82 234.993 401.921 235.262 402.915 235.777C403.91 236.292 404.77 237.039 405.426 237.957C406.082 238.875 406.515 239.938 406.69 241.059C406.864 242.179 406.775 243.326 406.43 244.405L380.142 326.525C379.68 327.968 378.781 329.225 377.573 330.117C376.365 331.009 374.91 331.489 373.416 331.489H266.319C265.202 331.489 264.102 331.22 263.108 330.705C262.114 330.189 261.253 329.442 260.598 328.524C259.942 327.606 259.509 326.544 259.335 325.423C259.161 324.303 259.25 323.157 259.595 322.078Z" fill="#292A2E"/>
<path d="M259.595 322.078L285.882 239.958C286.344 238.515 287.244 237.257 288.452 236.365C289.66 235.474 291.115 234.993 292.608 234.993H399.704C400.82 234.993 401.921 235.262 402.915 235.777C403.91 236.292 404.77 237.039 405.426 237.957C406.082 238.875 406.515 239.938 406.69 241.059C406.864 242.179 406.775 243.326 406.43 244.405L380.142 326.525C379.68 327.968 378.781 329.225 377.573 330.117C376.365 331.009 374.91 331.489 373.416 331.489H266.319C265.202 331.489 264.102 331.22 263.108 330.705C262.114 330.189 261.253 329.442 260.598 328.524C259.942 327.606 259.509 326.544 259.335 325.423C259.161 324.303 259.25 323.157 259.595 322.078Z" fill="#292A2E"/>
<path d="M281.04 324.831H209.35C207.563 324.831 206.115 326.302 206.115 328.118V328.202C206.115 330.018 207.563 331.489 209.35 331.489H281.04C282.826 331.489 284.274 330.018 284.274 328.202V328.118C284.274 326.302 282.826 324.831 281.04 324.831Z" fill="#292A2E"/>
<path d="M281.04 324.831H209.35C207.563 324.831 206.115 326.302 206.115 328.118V328.202C206.115 330.018 207.563 331.489 209.35 331.489H281.04C282.826 331.489 284.274 330.018 284.274 328.202V328.118C284.274 326.302 282.826 324.831 281.04 324.831Z" fill="#292A2E"/>
<path d="M333.012 298.662C339.216 298.662 344.245 293.552 344.245 287.247C344.245 280.943 339.216 275.832 333.012 275.832C326.809 275.832 321.78 280.943 321.78 287.247C321.78 293.552 326.809 298.662 333.012 298.662Z" fill="white"/>
<path d="M253.604 302.841L235.711 296.468L238.28 296.287C239.108 296.212 239.877 295.821 240.432 295.191C240.987 294.562 241.286 293.743 241.268 292.898C241.245 292.463 241.134 292.037 240.943 291.646C240.751 291.255 240.484 290.908 240.157 290.626C239.829 290.344 239.449 290.133 239.038 290.005C238.628 289.878 238.196 289.836 237.769 289.884L206.115 293.302L206.934 303.64C207.19 306.851 208.383 309.911 210.361 312.428C212.339 314.945 215.011 316.805 218.036 317.769L231.743 322.108C232.452 322.348 233.219 322.331 233.917 322.061C234.614 321.792 235.198 321.285 235.571 320.628C235.895 320.028 236.021 319.338 235.932 318.659C235.843 317.981 235.542 317.349 235.075 316.856C235.105 316.834 235.131 316.806 235.15 316.774C235.169 316.742 235.182 316.706 235.187 316.668C235.192 316.631 235.189 316.593 235.179 316.556C235.17 316.52 235.153 316.486 235.129 316.457L237.654 317.262C238.442 317.531 239.301 317.485 240.058 317.135C240.814 316.785 241.412 316.156 241.73 315.376C241.989 314.667 241.995 313.889 241.745 313.177C241.495 312.465 241.007 311.866 240.365 311.484C240.395 311.468 240.421 311.446 240.443 311.42L241.481 311.752C242.189 311.991 242.957 311.974 243.654 311.705C244.352 311.435 244.936 310.929 245.309 310.272C245.702 309.543 245.802 308.688 245.588 307.886C245.374 307.083 244.863 306.396 244.162 305.969C244.167 305.948 244.171 305.926 244.172 305.904L251.622 308.558C252.368 308.824 253.188 308.778 253.9 308.43C254.613 308.081 255.16 307.46 255.421 306.702C255.683 305.943 255.637 305.111 255.295 304.387C254.952 303.663 254.34 303.107 253.594 302.841H253.604Z" fill="#E98862"/>
<path opacity="0.2" d="M243.887 306.2C243.853 306.2 243.818 306.194 243.786 306.182L236.578 303.522C236.504 303.494 236.444 303.438 236.411 303.365C236.378 303.293 236.374 303.21 236.401 303.135C236.429 303.059 236.484 302.998 236.556 302.965C236.627 302.931 236.709 302.928 236.783 302.955L243.99 305.618C244.055 305.642 244.11 305.689 244.145 305.751C244.18 305.812 244.193 305.884 244.181 305.954C244.169 306.024 244.133 306.087 244.079 306.133C244.026 306.178 243.958 306.203 243.889 306.203L243.887 306.2Z" fill="#0A0A0A"/>
<path opacity="0.2" d="M240.244 311.526C240.21 311.526 240.177 311.52 240.145 311.508L234.464 309.46C234.427 309.447 234.393 309.426 234.364 309.4C234.335 309.373 234.312 309.341 234.295 309.305C234.278 309.269 234.269 309.231 234.267 309.191C234.264 309.152 234.27 309.112 234.283 309.075C234.296 309.037 234.316 309.003 234.342 308.973C234.369 308.944 234.4 308.92 234.435 308.903C234.471 308.886 234.509 308.876 234.548 308.874C234.587 308.872 234.626 308.878 234.662 308.891L240.343 310.94C240.409 310.963 240.465 311.01 240.5 311.072C240.536 311.133 240.549 311.205 240.537 311.275C240.525 311.345 240.489 311.409 240.435 311.455C240.382 311.501 240.314 311.526 240.244 311.526Z" fill="#0A0A0A"/>
<path opacity="0.2" d="M234.895 316.929C234.858 316.929 234.822 316.922 234.788 316.909L232.127 315.878C232.089 315.865 232.054 315.844 232.024 315.817C231.994 315.79 231.97 315.757 231.952 315.721C231.935 315.684 231.926 315.644 231.924 315.603C231.922 315.562 231.929 315.522 231.943 315.484C231.958 315.446 231.979 315.411 232.007 315.382C232.035 315.352 232.068 315.329 232.105 315.313C232.142 315.298 232.182 315.29 232.222 315.29C232.262 315.29 232.302 315.298 232.339 315.315L235 316.346C235.064 316.371 235.118 316.418 235.152 316.48C235.186 316.541 235.198 316.613 235.185 316.682C235.173 316.751 235.137 316.814 235.083 316.859C235.03 316.904 234.963 316.929 234.894 316.929H234.895Z" fill="#0A0A0A"/>
<path d="M220.125 287.184L145.066 287.133L116.672 216.739L74.3132 234.838L109.741 318.384L110.088 319.216C111.821 323.277 114.741 326.698 118.451 329.017C122.161 331.335 126.483 332.439 130.831 332.178L221.261 326.748L220.125 287.184Z" fill="#027354"/>
<path d="M129.586 332.561C125.378 332.553 121.264 331.3 117.745 328.955C114.227 326.609 111.457 323.273 109.774 319.353L109.427 318.521L79.24 247.332L79.8664 247.059L110.401 319.08C112.115 323.069 114.989 326.429 118.638 328.709C122.287 330.989 126.535 332.078 130.811 331.831L220.91 326.422L219.794 287.532L144.839 287.481L123.004 233.355L123.635 233.093L145.295 286.788L220.455 286.839L221.61 327.075L221.279 327.095L130.85 332.525C130.428 332.549 130.007 332.561 129.586 332.561Z" fill="#0C0C0C"/>
<path d="M580.676 338.134L579.318 338.274L608.084 627.683L609.442 627.544L580.676 338.134Z" fill="#494949"/>
<path d="M46.1002 338.138L17.3145 627.545L18.6722 627.685L47.458 338.277L46.1002 338.138Z" fill="#494949"/>
<path d="M165.032 338.137L136.246 627.545L137.604 627.685L166.39 338.277L165.032 338.137Z" fill="#494949"/>
<path d="M699.607 338.133L698.25 338.273L727.015 627.682L728.373 627.543L699.607 338.133Z" fill="#494949"/>
<path d="M725.547 332.523H22.0453C18.9573 332.523 16.4541 335.067 16.4541 338.205C16.4541 341.343 18.9573 343.887 22.0453 343.887H725.547C728.635 343.887 731.138 341.343 731.138 338.205C731.138 335.067 728.635 332.523 725.547 332.523Z" fill="#292A2E"/>
<path opacity="0.8" d="M725.547 332.523H22.0453C18.9573 332.523 16.4541 335.067 16.4541 338.205C16.4541 341.343 18.9573 343.887 22.0453 343.887H725.547C728.635 343.887 731.138 341.343 731.138 338.205C731.138 335.067 728.635 332.523 725.547 332.523Z" fill="white"/>
<path d="M725.548 344.58H22.0484C21.2191 344.589 20.3963 344.43 19.6276 344.114C18.8589 343.798 18.1596 343.329 17.5701 342.737C16.9806 342.144 16.5127 341.438 16.1933 340.66C15.8739 339.882 15.7095 339.048 15.7095 338.205C15.7095 337.362 15.8739 336.528 16.1933 335.75C16.5127 334.972 16.9806 334.266 17.5701 333.673C18.1596 333.08 18.8589 332.612 19.6276 332.296C20.3963 331.979 21.2191 331.821 22.0484 331.83H725.548C727.201 331.847 728.779 332.527 729.942 333.72C731.104 334.914 731.756 336.526 731.756 338.205C731.756 339.884 731.104 341.496 729.942 342.69C728.779 343.883 727.201 344.563 725.548 344.58ZM22.0484 333.217C21.3989 333.209 20.7544 333.332 20.1522 333.579C19.5499 333.826 19.002 334.193 18.54 334.657C18.078 335.121 17.7113 335.673 17.4609 336.282C17.2106 336.891 17.0817 337.545 17.0817 338.205C17.0817 338.865 17.2106 339.518 17.4609 340.128C17.7113 340.737 18.078 341.289 18.54 341.753C19.002 342.217 19.5499 342.583 20.1522 342.831C20.7544 343.078 21.3989 343.201 22.0484 343.193H725.548C726.84 343.178 728.074 342.645 728.982 341.712C729.89 340.778 730.399 339.518 730.399 338.205C730.399 336.892 729.89 335.632 728.982 334.698C728.074 333.764 726.84 333.232 725.548 333.217H22.0484Z" fill="#292A2E"/>
<path d="M725.548 332.523H145.524C142.436 332.523 139.933 335.067 139.933 338.205C139.933 341.343 142.436 343.887 145.524 343.887H725.548C728.636 343.887 731.139 341.343 731.139 338.205C731.139 335.067 728.636 332.523 725.548 332.523Z" fill="white"/>
<path d="M725.548 344.58H145.523C143.871 344.563 142.292 343.883 141.129 342.69C139.967 341.496 139.315 339.884 139.315 338.205C139.315 336.526 139.967 334.914 141.129 333.72C142.292 332.527 143.871 331.847 145.523 331.83H725.548C727.2 331.847 728.779 332.527 729.942 333.72C731.104 334.914 731.756 336.526 731.756 338.205C731.756 339.884 731.104 341.496 729.942 342.69C728.779 343.883 727.2 344.563 725.548 344.58ZM145.523 333.217C144.231 333.232 142.998 333.764 142.089 334.698C141.181 335.632 140.672 336.892 140.672 338.205C140.672 339.518 141.181 340.778 142.089 341.712C142.998 342.645 144.231 343.178 145.523 343.193H725.548C726.84 343.178 728.073 342.645 728.982 341.712C729.89 340.778 730.399 339.518 730.399 338.205C730.399 336.892 729.89 335.632 728.982 334.698C728.073 333.764 726.84 333.232 725.548 333.217H145.523Z" fill="#292A2E"/>
</svg>
