<svg width="18" height="18" viewBox="0 0 18 18" fill="none" xmlns="http://www.w3.org/2000/svg">
<g clip-path="url(#clip0_140_2)">
<path fill-rule="evenodd" clip-rule="evenodd" d="M9.52714 2.2024C9.4679 2.11752 9.38904 2.04821 9.29726 2.00035C9.20549 1.95248 9.10351 1.92749 9 1.92749C8.89649 1.92749 8.79452 1.95248 8.70274 2.00035C8.61096 2.04821 8.5321 2.11752 8.47286 2.2024L4.41257 8.00354L1.098 4.68769C1.00809 4.59755 0.893443 4.53614 0.768589 4.51124C0.643735 4.48634 0.5143 4.49907 0.396691 4.54782C0.279083 4.59657 0.178597 4.67914 0.107975 4.78507C0.0373526 4.891 -0.000226754 5.01552 1.02941e-06 5.14283V13.5C1.02941e-06 14.182 0.270919 14.836 0.753155 15.3182C1.23539 15.8005 1.88944 16.0714 2.57143 16.0714H15.4286C16.1106 16.0714 16.7646 15.8005 17.2468 15.3182C17.7291 14.836 18 14.182 18 13.5V5.14283C18.0002 5.01552 17.9627 4.891 17.892 4.78507C17.8214 4.67914 17.7209 4.59657 17.6033 4.54782C17.4857 4.49907 17.3563 4.48634 17.2314 4.51124C17.1066 4.53614 16.9919 4.59755 16.902 4.68769L13.5874 8.00354L9.52714 2.2024Z" fill="#0CBC8B"/>
</g>
<defs>
<clipPath id="clip0_140_2">
<rect width="18" height="18" fill="white"/>
</clipPath>
</defs>
</svg>
