<svg width="38" height="37" viewBox="0 0 38 37" fill="none" xmlns="http://www.w3.org/2000/svg">
<path d="M7.91667 32.375C7.04583 32.375 6.30061 32.0733 5.681 31.47C5.06139 30.8667 4.75106 30.1406 4.75 29.2917V7.70833C4.75 6.86042 5.06033 6.13481 5.681 5.5315C6.30167 4.92819 7.04689 4.62603 7.91667 4.625H30.0833C30.9542 4.625 31.6999 4.92717 32.3206 5.5315C32.9413 6.13583 33.2511 6.86144 33.25 7.70833V29.2917C33.25 30.1396 32.9402 30.8657 32.3206 31.47C31.701 32.0744 30.9552 32.376 30.0833 32.375H7.91667ZM9.5 26.2083H28.5L22.5625 18.5L17.8125 24.6667L14.25 20.0417L9.5 26.2083Z" fill="#4A4A4A"/>
</svg>
