<svg width="45" height="40" viewBox="0 0 45 40" fill="none" xmlns="http://www.w3.org/2000/svg">
<path d="M40.5 0.712891H4.5C2.025 0.712891 0.0225 2.86841 0.0225 5.50293L0 34.2432C0 36.8777 2.025 39.0332 4.5 39.0332H40.5C42.975 39.0332 45 36.8777 45 34.2432V5.50293C45 2.86841 42.975 0.712891 40.5 0.712891ZM39.6 10.8917L23.6925 21.4777C22.9725 21.9567 22.0275 21.9567 21.3075 21.4777L5.4 10.8917C5.17439 10.7569 4.97682 10.5748 4.81925 10.3563C4.66168 10.1379 4.54739 9.88768 4.48329 9.62086C4.4192 9.35403 4.40663 9.07614 4.44635 8.804C4.48607 8.53186 4.57726 8.27113 4.71438 8.03758C4.85151 7.80404 5.03173 7.60254 5.24413 7.44528C5.45654 7.28802 5.69671 7.17827 5.95011 7.12268C6.20352 7.06708 6.46489 7.0668 6.7184 7.12184C6.97191 7.17688 7.21229 7.2861 7.425 7.4429L22.5 17.478L37.575 7.4429C37.7877 7.2861 38.0281 7.17688 38.2816 7.12184C38.5351 7.0668 38.7965 7.06708 39.0499 7.12268C39.3033 7.17827 39.5435 7.28802 39.7559 7.44528C39.9683 7.60254 40.1485 7.80404 40.2856 8.03758C40.4227 8.27113 40.5139 8.53186 40.5536 8.804C40.5934 9.07614 40.5808 9.35403 40.5167 9.62086C40.4526 9.88768 40.3383 10.1379 40.1808 10.3563C40.0232 10.5748 39.8256 10.7569 39.6 10.8917Z" fill="#737373"/>
</svg>
