<svg width="26" height="18" viewBox="0 0 26 18" fill="none" xmlns="http://www.w3.org/2000/svg">
<path d="M25.7214 8.02125C24.2882 5.7195 22.4286 3.76425 20.3443 2.36644C18.0385 0.818438 15.4926 0 12.9826 0C10.6794 0 8.41473 0.683438 6.25133 2.03119C4.04514 3.40538 2.0464 5.41294 0.31037 7.99762C0.114388 8.28973 0.00645301 8.63575 0.000280382 8.99171C-0.00589224 9.34767 0.0899761 9.6975 0.275703 9.99675C1.70624 12.3216 3.54735 14.2796 5.59917 15.6583C7.90936 17.2125 10.3956 18 12.9826 18C15.5127 18 18.0639 17.1883 20.36 15.6532C22.4433 14.2599 24.299 12.2974 25.7268 9.9765C25.9061 9.68421 26.001 9.34462 26 8.99805C25.999 8.65148 25.9023 8.31247 25.7214 8.02125ZM13.001 14.4C11.9725 14.4 10.9672 14.0833 10.112 13.4899C9.25691 12.8966 8.59042 12.0532 8.19685 11.0665C7.80328 10.0798 7.7003 8.99401 7.90094 7.94651C8.10158 6.89901 8.59683 5.93683 9.32406 5.18162C10.0513 4.42642 10.9778 3.91212 11.9865 3.70376C12.9952 3.4954 14.0408 3.60234 14.9909 4.01105C15.9411 4.41976 16.7532 5.1119 17.3246 5.99992C17.896 6.88795 18.201 7.93198 18.201 9C18.1994 10.4317 17.651 11.8042 16.6762 12.8166C15.7013 13.8289 14.3796 14.3984 13.001 14.4Z" fill="#4A4A4A"/>
</svg>
