<svg width="53" height="53" viewBox="0 0 53 53" fill="none" xmlns="http://www.w3.org/2000/svg">
<path d="M53 15.1456C48.5498 14.9009 44.1349 16.0571 40.3765 18.4516C39.4676 17.4169 38.5335 16.3822 37.5489 15.398L36.8167 14.7166L37.1702 14.4138C38.4048 13.3544 39.2847 11.9419 39.691 10.367C40.0973 8.79206 40.0105 7.13044 39.4424 5.60634C38.6216 3.88568 37.3187 2.44028 35.6918 1.44574C34.0649 0.45119 32.184 -0.0497075 30.2777 0.00389284V5.05114C31.176 5.03864 32.0614 5.26592 32.8425 5.70954C33.6236 6.15315 34.2721 6.79704 34.7212 7.57477C35.1504 8.58422 34.7212 9.69461 33.5346 10.8807L32.9539 11.4107C30.3205 9.21728 27.4294 7.35288 24.3447 5.8587C17.9572 2.98177 14.6751 4.31929 13.0593 5.8587C12.567 6.35204 12.1729 6.93439 11.898 7.57477L11.4435 8.91229L7.80795 19.8648C10.6861 27.0319 17.6543 39.7762 32.8024 45.2777L45.4259 41.0885C45.8516 40.9301 46.2267 40.6598 46.5115 40.3062L47.0417 39.8519C50.652 36.2179 48.3293 29.2275 43.4819 22.4389C46.3602 20.7598 49.6744 19.9778 53 20.1929V15.1456ZM43.4314 36.2684H43.2799C41.5379 37.2021 34.3173 34.8299 26.1372 26.6534C25.2788 25.7953 24.4709 24.9625 23.7388 24.1297C23.4863 23.8521 23.2591 23.5493 23.0066 23.2465L21.6685 21.6313L20.9616 20.6471C20.6082 20.1677 20.2547 19.6882 19.9517 19.2339C19.6488 18.7797 19.5478 18.5778 19.3458 18.2497C19.1438 17.9216 18.7904 17.3917 18.5632 16.9626C18.3359 16.5336 18.2349 16.357 18.0835 16.0289C17.932 15.7008 17.6543 15.3223 17.5028 14.969C17.3513 14.6157 17.2756 14.3886 17.1493 14.111C17.0231 13.8334 16.8716 13.4296 16.7706 13.1015C16.6696 12.7734 16.6444 12.622 16.5939 12.3697C16.5434 12.1173 16.4424 11.764 16.3919 11.5116C16.3798 11.3099 16.3798 11.1077 16.3919 10.9059C16.3671 10.6879 16.3671 10.4678 16.3919 10.2498L16.6696 9.46748C17.0988 9.01323 18.9671 8.88705 22.2997 10.4012C24.5269 11.4707 26.6342 12.7735 28.5862 14.2876C27.522 14.7571 26.3874 15.047 25.2284 15.1456V20.1929C27.9105 20.0408 30.513 19.2257 32.8024 17.8207L34.0395 18.9815C35.1504 20.0667 36.135 21.1519 37.0439 22.1865C35.5217 24.7812 34.917 27.8123 35.3271 30.7921L40.3765 29.8079C40.2059 28.8565 40.2059 27.8824 40.3765 26.931C43.6334 31.9025 44.2393 35.486 43.4314 36.2684ZM6.04067 25.2401L0.410598 42.1484C0.00424251 43.3898 -0.102451 44.7097 0.0992404 46.0002C0.300931 47.2907 0.805281 48.5151 1.57106 49.5735C2.33684 50.6318 3.34231 51.494 4.50528 52.0895C5.66825 52.6851 6.9557 52.9971 8.2624 53C9.12139 52.9916 9.9736 52.8468 10.7871 52.571L27.2481 47.0947C17.9576 42.352 10.5001 34.667 6.04067 25.2401Z" fill="#0CBC8B"/>
</svg>
