<svg width="55" height="55" viewBox="0 0 55 55" fill="none" xmlns="http://www.w3.org/2000/svg">
<path fill-rule="evenodd" clip-rule="evenodd" d="M27.2507 15.3582C20.5611 15.3582 15.1274 20.791 15.1274 27.492C15.1274 34.1929 20.5611 39.6152 27.2507 39.6152C33.9516 39.6152 39.3852 34.1921 39.3852 27.492C39.3852 20.7918 33.9516 15.3582 27.2507 15.3582Z" fill="#787878"/>
<path fill-rule="evenodd" clip-rule="evenodd" d="M49.0605 0H5.28344C3.88218 0 2.53832 0.556647 1.54748 1.54748C0.556647 2.53832 0 3.88218 0 5.28344V49.0605C0 50.4618 0.556647 51.8056 1.54748 52.7965C2.53832 53.7873 3.88218 54.3439 5.28344 54.3439H49.0605C50.4618 54.3439 51.8056 53.7873 52.7965 52.7965C53.7873 51.8056 54.3439 50.4618 54.3439 49.0605V5.28344C54.3439 3.88218 53.7873 2.53832 52.7965 1.54748C51.8056 0.556647 50.4618 0 49.0605 0ZM27.2505 45.8203C17.1334 45.8203 8.91165 37.6204 8.91165 27.492C8.91165 17.3636 17.1334 9.14262 27.2505 9.14262C37.3788 9.14262 45.5893 17.3644 45.5893 27.492C45.5893 37.6204 37.3788 45.8203 27.2505 45.8203Z" fill="#787878"/>
</svg>
