<svg width="40" height="40" viewBox="0 0 40 40" fill="none" xmlns="http://www.w3.org/2000/svg">
<g clip-path="url(#clip0_136_32)">
<path fill-rule="evenodd" clip-rule="evenodd" d="M21.1714 4.89423C21.0398 4.70562 20.8645 4.55159 20.6606 4.44523C20.4566 4.33887 20.23 4.28333 20 4.28333C19.77 4.28333 19.5434 4.33887 19.3394 4.44523C19.1355 4.55159 18.9602 4.70562 18.8286 4.89423L9.80572 17.7857L2.44 10.4171C2.2402 10.2168 1.98543 10.0803 1.70798 10.025C1.43052 9.96965 1.14289 9.99794 0.881536 10.1063C0.620183 10.2146 0.396883 10.3981 0.239945 10.6335C0.0830058 10.8689 -0.000503899 11.1456 2.28757e-06 11.4285V29.9999C2.28757e-06 31.5155 0.602041 32.9689 1.67368 34.0406C2.74531 35.1122 4.19876 35.7142 5.71429 35.7142H34.2857C35.8012 35.7142 37.2547 35.1122 38.3263 34.0406C39.398 32.9689 40 31.5155 40 29.9999V11.4285C40.0005 11.1456 39.917 10.8689 39.7601 10.6335C39.6031 10.3981 39.3798 10.2146 39.1185 10.1063C38.8571 9.99794 38.5695 9.96965 38.292 10.025C38.0146 10.0803 37.7598 10.2168 37.56 10.4171L30.1943 17.7857L21.1714 4.89423Z" fill="#0CBC8B"/>
</g>
<defs>
<clipPath id="clip0_136_32">
<rect width="40" height="40" fill="white"/>
</clipPath>
</defs>
</svg>
