<svg width="29" height="29" viewBox="0 0 29 29" fill="none" xmlns="http://www.w3.org/2000/svg">
<path d="M20.5416 10.875V8.45829C20.5416 5.07496 17.8833 2.41663 14.4999 2.41663C11.1166 2.41663 8.45825 5.07496 8.45825 8.45829V10.875C6.40409 10.875 4.83325 12.4458 4.83325 14.5V22.9583C4.83325 25.0125 6.40409 26.5833 8.45825 26.5833H20.5416C22.5958 26.5833 24.1666 25.0125 24.1666 22.9583V14.5C24.1666 12.4458 22.5958 10.875 20.5416 10.875ZM10.8749 8.45829C10.8749 6.40413 12.4458 4.83329 14.4999 4.83329C16.5541 4.83329 18.1249 6.40413 18.1249 8.45829V10.875H10.8749V8.45829ZM15.8291 18.7291L15.7083 18.85V20.5416C15.7083 21.2666 15.2249 21.75 14.4999 21.75C13.7749 21.75 13.2916 21.2666 13.2916 20.5416V18.85C12.5666 18.125 12.4458 17.0375 13.1708 16.3125C13.8958 15.5875 14.9833 15.4666 15.7083 16.1916C16.4333 16.7958 16.5541 18.0041 15.8291 18.7291Z" fill="#4A4A4A"/>
</svg>
