<svg width="37" height="37" viewBox="0 0 37 37" fill="none" xmlns="http://www.w3.org/2000/svg">
<path d="M18.5 2.3125C14.2228 2.3641 10.1354 4.08613 7.11077 7.11077C4.08613 10.1354 2.3641 14.2228 2.3125 18.5C2.3641 22.7772 4.08613 26.8646 7.11077 29.8892C10.1354 32.9139 14.2228 34.6359 18.5 34.6875C22.7772 34.6359 26.8646 32.9139 29.8892 29.8892C32.9139 26.8646 34.6359 22.7772 34.6875 18.5C34.6359 14.2228 32.9139 10.1354 29.8892 7.11077C26.8646 4.08613 22.7772 2.3641 18.5 2.3125ZM27.75 19.6562H19.6562V27.75H17.3438V19.6562H9.25V17.3438H17.3438V9.25H19.6562V17.3438H27.75V19.6562Z" fill="#C4F8CC" fill-opacity="0.69"/>
</svg>
