<svg width="598" height="722" viewBox="0 0 598 722" fill="none" xmlns="http://www.w3.org/2000/svg">
<g clip-path="url(#clip0_70_2)">
<path d="M567.838 0.916931H80.7809C64.6299 0.916931 51.537 14.0023 51.537 30.144V413.208C51.537 429.35 64.6299 442.435 80.7809 442.435H567.838C583.989 442.435 597.082 429.35 597.082 413.208V30.144C597.082 14.0023 583.989 0.916931 567.838 0.916931Z" fill="white"/>
<path d="M567.838 443.353H80.7808C72.7838 443.344 65.1167 440.165 59.4619 434.514C53.8071 428.862 50.6264 421.2 50.6178 413.207V30.1456C50.6264 22.1532 53.8071 14.4905 59.4619 8.839C65.1167 3.18747 72.7838 0.00864447 80.7808 0L567.838 0C575.835 0.00886568 583.502 3.18776 589.156 8.83925C594.811 14.4907 597.992 22.1532 598.001 30.1456V413.208C597.992 421.2 594.811 428.863 589.156 434.514C583.501 440.165 575.835 443.344 567.838 443.353ZM80.7808 1.8347C73.2707 1.84334 66.0707 4.8289 60.7603 10.1364C55.4499 15.4439 52.4628 22.6398 52.4544 30.1456V413.208C52.463 420.714 55.4502 427.91 60.7606 433.217C66.0709 438.524 73.2709 441.51 80.7808 441.518H567.838C575.348 441.51 582.548 438.524 587.858 433.217C593.169 427.91 596.156 420.714 596.164 413.208V30.1456C596.156 22.6398 593.169 15.4437 587.859 10.1361C582.548 4.8286 575.348 1.84312 567.838 1.8347H80.7808Z" fill="#292A2E"/>
<path opacity="0.2" d="M554.325 80.2896H524.419C518.116 80.2896 513.006 85.3966 513.006 91.6964V121.585C513.006 127.885 518.116 132.992 524.419 132.992H554.325C560.628 132.992 565.738 127.885 565.738 121.585V91.6964C565.738 85.3966 560.628 80.2896 554.325 80.2896Z" fill="#367CFF"/>
<path opacity="0.2" d="M555.253 146.859H525.577C519.21 146.859 514.049 152.017 514.049 158.38V188.039C514.049 194.402 519.21 199.561 525.577 199.561H555.253C561.62 199.561 566.781 194.402 566.781 188.039V158.38C566.781 152.017 561.62 146.859 555.253 146.859Z" fill="#367CFF"/>
<path opacity="0.2" d="M555.253 221H525.577C519.21 221 514.049 226.159 514.049 232.522V262.181C514.049 268.544 519.21 273.702 525.577 273.702H555.253C561.62 273.702 566.781 268.544 566.781 262.181V232.522C566.781 226.159 561.62 221 555.253 221Z" fill="#367CFF"/>
<path opacity="0.2" d="M554.21 291.348H524.534C518.167 291.348 513.006 296.507 513.006 302.87V332.529C513.006 338.892 518.167 344.051 524.534 344.051H554.21C560.577 344.051 565.738 338.892 565.738 332.529V302.87C565.738 296.507 560.577 291.348 554.21 291.348Z" fill="#367CFF"/>
<g opacity="0.15">
<path d="M339.296 80.2896H309.39C303.086 80.2896 297.977 85.3966 297.977 91.6964V121.585C297.977 127.885 303.086 132.992 309.39 132.992H339.296C345.599 132.992 350.709 127.885 350.709 121.585V91.6964C350.709 85.3966 345.599 80.2896 339.296 80.2896Z" fill="#367CFF"/>
<path d="M267.619 80.2896H237.713C231.41 80.2896 226.3 85.3966 226.3 91.6964V121.585C226.3 127.885 231.41 132.992 237.713 132.992H267.619C273.923 132.992 279.033 127.885 279.033 121.585V91.6964C279.033 85.3966 273.923 80.2896 267.619 80.2896Z" fill="#367CFF"/>
<path d="M196.986 80.2896H167.08C160.776 80.2896 155.667 85.3966 155.667 91.6964V121.585C155.667 127.885 160.776 132.992 167.08 132.992H196.986C203.289 132.992 208.399 127.885 208.399 121.585V91.6964C208.399 85.3966 203.289 80.2896 196.986 80.2896Z" fill="#367CFF"/>
<path d="M125.309 80.2896H95.4032C89.0998 80.2896 83.9899 85.3966 83.9899 91.6964V121.585C83.9899 127.885 89.0998 132.992 95.4032 132.992H125.309C131.612 132.992 136.722 127.885 136.722 121.585V91.6964C136.722 85.3966 131.612 80.2896 125.309 80.2896Z" fill="#367CFF"/>
<path d="M410.972 80.2896H381.066C374.762 80.2896 369.652 85.3966 369.652 91.6964V121.585C369.652 127.885 374.762 132.992 381.066 132.992H410.972C417.275 132.992 422.385 127.885 422.385 121.585V91.6964C422.385 85.3966 417.275 80.2896 410.972 80.2896Z" fill="#367CFF"/>
<path d="M482.648 80.2896H452.742C446.439 80.2896 441.329 85.3966 441.329 91.6964V121.585C441.329 127.885 446.439 132.992 452.742 132.992H482.648C488.952 132.992 494.062 127.885 494.062 121.585V91.6964C494.062 85.3966 488.952 80.2896 482.648 80.2896Z" fill="#367CFF"/>
<path d="M340.223 146.859H310.547C304.18 146.859 299.019 152.017 299.019 158.38V188.039C299.019 194.402 304.18 199.561 310.547 199.561H340.223C346.59 199.561 351.751 194.402 351.751 188.039V158.38C351.751 152.017 346.59 146.859 340.223 146.859Z" fill="#367CFF"/>
<path d="M411.9 146.859H382.224C375.857 146.859 370.696 152.017 370.696 158.38V188.039C370.696 194.402 375.857 199.561 382.224 199.561H411.9C418.267 199.561 423.428 194.402 423.428 188.039V158.38C423.428 152.017 418.267 146.859 411.9 146.859Z" fill="#367CFF"/>
<path d="M483.577 146.859H453.9C447.534 146.859 442.372 152.017 442.372 158.38V188.039C442.372 194.402 447.534 199.561 453.9 199.561H483.577C489.943 199.561 495.105 194.402 495.105 188.039V158.38C495.105 152.017 489.943 146.859 483.577 146.859Z" fill="#367CFF"/>
<path d="M125.194 146.859H95.518C89.1512 146.859 83.9899 152.017 83.9899 158.38V188.039C83.9899 194.402 89.1512 199.561 95.518 199.561H125.194C131.561 199.561 136.722 194.402 136.722 188.039V158.38C136.722 152.017 131.561 146.859 125.194 146.859Z" fill="#367CFF"/>
<path d="M196.871 146.859H167.195C160.828 146.859 155.667 152.017 155.667 158.38V188.039C155.667 194.402 160.828 199.561 167.195 199.561H196.871C203.238 199.561 208.399 194.402 208.399 188.039V158.38C208.399 152.017 203.238 146.859 196.871 146.859Z" fill="#367CFF"/>
<path d="M268.547 146.859H238.87C232.504 146.859 227.342 152.017 227.342 158.38V188.039C227.342 194.402 232.504 199.561 238.87 199.561H268.547C274.914 199.561 280.075 194.402 280.075 188.039V158.38C280.075 152.017 274.914 146.859 268.547 146.859Z" fill="#367CFF"/>
<path d="M340.223 221H310.547C304.18 221 299.019 226.159 299.019 232.522V262.181C299.019 268.544 304.18 273.702 310.547 273.702H340.223C346.59 273.702 351.751 268.544 351.751 262.181V232.522C351.751 226.159 346.59 221 340.223 221Z" fill="#367CFF"/>
<path d="M411.9 221H382.224C375.857 221 370.696 226.159 370.696 232.522V262.181C370.696 268.544 375.857 273.702 382.224 273.702H411.9C418.267 273.702 423.428 268.544 423.428 262.181V232.522C423.428 226.159 418.267 221 411.9 221Z" fill="#367CFF"/>
<path d="M483.577 221H453.9C447.534 221 442.372 226.159 442.372 232.522V262.181C442.372 268.544 447.534 273.702 453.9 273.702H483.577C489.943 273.702 495.105 268.544 495.105 262.181V232.522C495.105 226.159 489.943 221 483.577 221Z" fill="#367CFF"/>
<path d="M125.194 221H95.518C89.1512 221 83.9899 226.159 83.9899 232.522V262.181C83.9899 268.544 89.1512 273.702 95.518 273.702H125.194C131.561 273.702 136.722 268.544 136.722 262.181V232.522C136.722 226.159 131.561 221 125.194 221Z" fill="#367CFF"/>
<path d="M196.871 221H167.195C160.828 221 155.667 226.159 155.667 232.522V262.181C155.667 268.544 160.828 273.702 167.195 273.702H196.871C203.238 273.702 208.399 268.544 208.399 262.181V232.522C208.399 226.159 203.238 221 196.871 221Z" fill="#367CFF"/>
<path d="M268.547 221H238.87C232.504 221 227.342 226.159 227.342 232.522V262.181C227.342 268.544 232.504 273.702 238.87 273.702H268.547C274.914 273.702 280.075 268.544 280.075 262.181V232.522C280.075 226.159 274.914 221 268.547 221Z" fill="#367CFF"/>
<path d="M340.223 292.39H310.547C304.18 292.39 299.019 297.549 299.019 303.912V333.571C299.019 339.934 304.18 345.092 310.547 345.092H340.223C346.59 345.092 351.751 339.934 351.751 333.571V303.912C351.751 297.549 346.59 292.39 340.223 292.39Z" fill="#367CFF"/>
<path d="M410.857 291.348H381.18C374.814 291.348 369.652 296.507 369.652 302.87V332.529C369.652 338.892 374.814 344.051 381.18 344.051H410.857C417.224 344.051 422.385 338.892 422.385 332.529V302.87C422.385 296.507 417.224 291.348 410.857 291.348Z" fill="#367CFF"/>
<path d="M482.533 291.348H452.857C446.49 291.348 441.329 296.507 441.329 302.87V332.529C441.329 338.892 446.49 344.051 452.857 344.051H482.533C488.9 344.051 494.062 338.892 494.062 332.529V302.87C494.062 296.507 488.9 291.348 482.533 291.348Z" fill="#367CFF"/>
<path d="M125.194 292.39H95.518C89.1512 292.39 83.9899 297.549 83.9899 303.912V333.571C83.9899 339.934 89.1512 345.092 95.518 345.092H125.194C131.561 345.092 136.722 339.934 136.722 333.571V303.912C136.722 297.549 131.561 292.39 125.194 292.39Z" fill="#367CFF"/>
<path d="M196.871 292.39H167.195C160.828 292.39 155.667 297.549 155.667 303.912V333.571C155.667 339.934 160.828 345.092 167.195 345.092H196.871C203.238 345.092 208.399 339.934 208.399 333.571V303.912C208.399 297.549 203.238 292.39 196.871 292.39Z" fill="#367CFF"/>
<path d="M268.547 292.39H238.87C232.504 292.39 227.342 297.549 227.342 303.912V333.571C227.342 339.934 232.504 345.092 238.87 345.092H268.547C274.914 345.092 280.075 339.934 280.075 333.571V303.912C280.075 297.549 274.914 292.39 268.547 292.39Z" fill="#367CFF"/>
<path d="M339.181 357.053H309.505C303.138 357.053 297.977 362.212 297.977 368.575V398.234C297.977 404.597 303.138 409.756 309.505 409.756H339.181C345.548 409.756 350.709 404.597 350.709 398.234V368.575C350.709 362.212 345.548 357.053 339.181 357.053Z" fill="#367CFF"/>
<path d="M124.151 357.053H94.4749C88.1081 357.053 82.9468 362.212 82.9468 368.575V398.234C82.9468 404.597 88.1081 409.756 94.4749 409.756H124.151C130.518 409.756 135.679 404.597 135.679 398.234V368.575C135.679 362.212 130.518 357.053 124.151 357.053Z" fill="#367CFF"/>
<path d="M195.828 357.053H166.152C159.785 357.053 154.623 362.212 154.623 368.575V398.234C154.623 404.597 159.785 409.756 166.152 409.756H195.828C202.195 409.756 207.356 404.597 207.356 398.234V368.575C207.356 362.212 202.195 357.053 195.828 357.053Z" fill="#367CFF"/>
<path d="M267.504 357.053H237.828C231.461 357.053 226.3 362.212 226.3 368.575V398.234C226.3 404.597 231.461 409.756 237.828 409.756H267.504C273.871 409.756 279.033 404.597 279.033 398.234V368.575C279.033 362.212 273.871 357.053 267.504 357.053Z" fill="#367CFF"/>
</g>
<path d="M597.082 30.1457V48.8837H51.5394V30.1457C51.5383 26.3071 52.2939 22.506 53.7629 18.9593C55.2319 15.4127 57.3857 12.19 60.1011 9.47538C62.8165 6.76074 66.0404 4.60733 69.5887 3.13814C73.137 1.66894 76.9401 0.91275 80.7808 0.91275H567.839C571.679 0.91319 575.482 1.66967 579.03 3.139C582.579 4.60833 585.802 6.76173 588.518 9.47626C591.233 12.1908 593.387 15.4133 594.857 18.9597C596.326 22.5062 597.082 26.3072 597.082 30.1457Z" fill="#292A2E"/>
<path d="M266.839 362.883H238.493C234.981 362.883 232.133 365.729 232.133 369.24V397.569C232.133 401.08 234.981 403.926 238.493 403.926H266.839C270.352 403.926 273.199 401.08 273.199 397.569V369.24C273.199 365.729 270.352 362.883 266.839 362.883Z" fill="white"/>
<path d="M122.088 276.287L87.0925 269.958C86.1005 269.778 85.2206 269.212 84.6461 268.384C84.0717 267.556 83.8498 266.534 84.0292 265.543L89.441 235.656L100.213 228.488L129.775 233.836C130.767 234.015 131.647 234.581 132.221 235.408C132.796 236.236 133.018 237.258 132.838 238.249L126.505 273.225C126.416 273.716 126.231 274.185 125.961 274.604C125.691 275.024 125.341 275.386 124.931 275.67C124.521 275.955 124.059 276.155 123.571 276.261C123.083 276.367 122.579 276.375 122.088 276.287Z" fill="#367CFF"/>
<path opacity="0.29" d="M100.213 228.488L89.441 235.656L98.6399 237.479L100.213 228.488Z" fill="#FFFFFA"/>
<g opacity="0.88">
<path d="M124.824 255.894C124.788 255.895 124.753 255.892 124.718 255.885L91.9713 249.833C91.8329 249.807 91.7104 249.728 91.6307 249.612C91.551 249.496 91.5205 249.354 91.5461 249.215C91.5716 249.077 91.6511 248.955 91.767 248.875C91.8828 248.795 92.0257 248.765 92.164 248.79L124.911 254.843C125.04 254.867 125.155 254.938 125.235 255.042C125.314 255.146 125.353 255.276 125.342 255.406C125.332 255.537 125.273 255.659 125.178 255.749C125.083 255.839 124.958 255.89 124.827 255.894H124.824Z" fill="white"/>
<path d="M123.65 262.759C123.614 262.759 123.579 262.756 123.544 262.75L90.7975 256.698C90.7267 256.687 90.6588 256.663 90.5977 256.626C90.5366 256.589 90.4836 256.54 90.442 256.482C90.4003 256.424 90.3708 256.358 90.3552 256.288C90.3396 256.218 90.3383 256.146 90.3512 256.076C90.3642 256.006 90.3912 255.939 90.4307 255.879C90.4702 255.82 90.5213 255.769 90.5809 255.729C90.6406 255.69 90.7076 255.663 90.7779 255.65C90.8482 255.637 90.9204 255.639 90.9902 255.654L123.736 261.707C123.866 261.73 123.982 261.801 124.063 261.905C124.143 262.009 124.182 262.14 124.172 262.271C124.161 262.402 124.102 262.525 124.006 262.615C123.91 262.705 123.784 262.756 123.653 262.759H123.65Z" fill="white"/>
<path d="M104.437 265.551C104.402 265.552 104.366 265.549 104.331 265.543L89.8063 262.858C89.7355 262.848 89.6676 262.824 89.6065 262.787C89.5454 262.749 89.4924 262.7 89.4507 262.642C89.4091 262.584 89.3796 262.518 89.364 262.449C89.3484 262.379 89.347 262.307 89.36 262.237C89.373 262.166 89.4 262.099 89.4395 262.04C89.479 261.98 89.5301 261.929 89.5897 261.89C89.6494 261.85 89.7164 261.824 89.7867 261.811C89.857 261.798 89.9292 261.799 89.999 261.815L104.524 264.5C104.653 264.524 104.768 264.595 104.848 264.699C104.927 264.803 104.966 264.933 104.955 265.064C104.945 265.194 104.887 265.316 104.791 265.406C104.696 265.496 104.571 265.548 104.44 265.551H104.437Z" fill="white"/>
</g>
<path d="M124.98 250.315C124.85 250.315 124.721 250.303 124.594 250.28L117.508 248.989C117.228 248.938 116.962 248.832 116.723 248.678C116.484 248.524 116.279 248.324 116.118 248.09C115.957 247.856 115.844 247.593 115.785 247.315C115.726 247.037 115.723 246.751 115.775 246.472L116.966 238.952C117.069 238.394 117.387 237.899 117.852 237.574C118.317 237.249 118.891 237.119 119.451 237.213L126.558 238.427C126.84 238.475 127.11 238.578 127.352 238.731C127.593 238.884 127.802 239.083 127.966 239.317C128.129 239.551 128.245 239.816 128.305 240.095C128.366 240.375 128.37 240.663 128.318 240.944L127.105 248.547C127.013 249.043 126.75 249.491 126.362 249.814C125.973 250.137 125.485 250.314 124.98 250.315ZM119.09 238.019C118.782 238.02 118.484 238.128 118.247 238.324C118.01 238.52 117.849 238.792 117.791 239.094L116.6 246.614C116.567 246.785 116.568 246.962 116.603 247.133C116.638 247.304 116.707 247.466 116.805 247.611C116.904 247.755 117.03 247.879 117.176 247.974C117.323 248.069 117.487 248.134 117.659 248.166L124.744 249.457C125.087 249.517 125.439 249.44 125.726 249.243C126.013 249.046 126.21 248.745 126.277 248.404L127.491 240.795C127.523 240.623 127.521 240.446 127.484 240.275C127.448 240.104 127.377 239.942 127.277 239.799C127.177 239.655 127.05 239.533 126.902 239.439C126.754 239.345 126.589 239.281 126.417 239.252L119.309 238.038C119.237 238.025 119.163 238.019 119.09 238.019Z" fill="white"/>
<path d="M244.237 396.951C244.163 396.951 244.089 396.951 244.014 396.94C243.673 396.909 243.342 396.808 243.043 396.642C242.743 396.476 242.481 396.25 242.274 395.977L234.829 386.192C234.434 385.671 234.261 385.015 234.349 384.368C234.438 383.72 234.78 383.134 235.3 382.738C235.821 382.343 236.478 382.17 237.126 382.258C237.774 382.347 238.36 382.689 238.756 383.209L244.567 390.848L266.871 370.5C267.11 370.282 267.39 370.113 267.695 370.003C267.999 369.893 268.322 369.844 268.646 369.858C268.969 369.873 269.287 369.952 269.58 370.089C269.873 370.226 270.137 370.42 270.355 370.659C270.573 370.898 270.742 371.178 270.852 371.482C270.962 371.787 271.012 372.11 270.997 372.433C270.982 372.756 270.904 373.074 270.766 373.367C270.629 373.66 270.435 373.923 270.196 374.141L245.898 396.304C245.444 396.719 244.852 396.95 244.237 396.951Z" fill="#367CFF"/>
<path d="M568.485 114.606L538.985 134.46C538.571 134.739 538.106 134.934 537.617 135.033C537.127 135.133 536.623 135.135 536.132 135.039C535.642 134.944 535.175 134.752 534.759 134.476C534.343 134.2 533.985 133.845 533.707 133.43L516.732 108.239L519.45 95.5944L544.373 78.8225C544.787 78.5435 545.252 78.3488 545.741 78.2495C546.231 78.1502 546.735 78.1483 547.225 78.2439C547.715 78.3394 548.182 78.5306 548.598 78.8065C549.015 79.0824 549.372 79.4375 549.651 79.8516L569.516 109.333C569.795 109.747 569.989 110.212 570.088 110.701C570.187 111.19 570.189 111.694 570.093 112.183C569.998 112.673 569.806 113.139 569.53 113.555C569.254 113.97 568.899 114.328 568.485 114.606Z" fill="#0CBC8B"/>
<path opacity="0.29" d="M519.454 95.5935L516.735 108.239L524.6 103.134L519.454 95.5935Z" fill="#FFFFFA"/>
<g opacity="0.88">
<path d="M556.217 98.083C556.191 98.1084 556.163 98.1311 556.133 98.1509L528.44 116.635C528.323 116.705 528.184 116.727 528.051 116.697C527.918 116.666 527.802 116.586 527.727 116.473C527.652 116.36 527.623 116.222 527.646 116.088C527.67 115.954 527.744 115.834 527.853 115.753L555.547 97.2691C555.657 97.1971 555.789 97.1681 555.918 97.1876C556.048 97.2072 556.165 97.2739 556.249 97.3749C556.332 97.4759 556.375 97.6042 556.369 97.7349C556.363 97.8657 556.309 97.9897 556.218 98.083H556.217Z" fill="white"/>
<path d="M560.165 103.822C560.139 103.847 560.111 103.87 560.081 103.889L532.387 122.374C532.27 122.443 532.131 122.465 531.998 122.435C531.865 122.405 531.749 122.325 531.674 122.212C531.599 122.098 531.57 121.961 531.593 121.827C531.617 121.693 531.691 121.573 531.801 121.492L559.494 103.008C559.604 102.936 559.736 102.907 559.865 102.926C559.995 102.946 560.113 103.012 560.196 103.113C560.279 103.214 560.322 103.343 560.316 103.473C560.31 103.604 560.256 103.728 560.165 103.822Z" fill="white"/>
<path d="M548.343 119.213C548.318 119.239 548.29 119.262 548.26 119.281L535.981 127.48C535.923 127.523 535.857 127.553 535.787 127.57C535.717 127.586 535.644 127.588 535.574 127.576C535.503 127.563 535.435 127.537 535.375 127.497C535.315 127.458 535.264 127.407 535.224 127.347C535.184 127.287 535.157 127.22 535.144 127.149C535.131 127.079 535.132 127.006 535.148 126.936C535.164 126.866 535.194 126.8 535.237 126.742C535.279 126.684 535.332 126.635 535.394 126.598L547.678 118.4C547.787 118.328 547.92 118.299 548.049 118.318C548.178 118.338 548.296 118.404 548.379 118.505C548.463 118.606 548.505 118.735 548.5 118.865C548.494 118.996 548.44 119.12 548.348 119.213H548.343Z" fill="white"/>
</g>
<path d="M575.241 722H30.2795C30.1239 722 29.9748 721.938 29.8648 721.828C29.7548 721.718 29.693 721.569 29.693 721.414C29.693 721.258 29.7548 721.109 29.8648 720.999C29.9748 720.889 30.1239 720.828 30.2795 720.828H575.241C575.397 720.828 575.546 720.889 575.656 720.999C575.766 721.109 575.828 721.258 575.828 721.414C575.828 721.569 575.766 721.718 575.656 721.828C575.546 721.938 575.397 722 575.241 722Z" fill="#292A2E"/>
<path d="M475.954 685.012C475.954 685.012 472.172 704.607 453.811 705.702C435.45 706.797 439.432 721.412 439.432 721.412H509.594V686.379L475.954 685.012Z" fill="#367CFF"/>
<path d="M497.596 327.509C497.596 327.509 497.375 321.618 497.421 334.982C497.596 384.83 500.137 441.769 502.252 475.088C505.65 528.65 512.688 697.519 512.688 697.519L463.233 697.132L421.901 325.484L497.596 327.509Z" fill="#262626"/>
<path d="M444.547 386.947C444.547 386.947 442.637 423.122 442.285 431.615C441.465 451.255 440.731 471.718 440.731 494.774L433.913 434.205C433.913 434.205 439.229 415.262 444.547 386.947Z" fill="#0A0A0A"/>
<path d="M385.5 685.012C385.5 685.012 381.718 704.607 363.357 705.702C344.997 706.797 348.979 721.412 348.979 721.412H419.141V686.379L385.5 685.012Z" fill="#367CFF"/>
<path d="M371.553 331.38C371.553 331.38 366.631 503.425 367.23 511.752L374.321 696.226L424.691 697.064L428.65 503.349C428.65 503.349 429.254 449.91 442.173 400.289C448.782 374.822 452.76 348.744 454.043 322.465L371.553 331.38Z" fill="#262626"/>
<path d="M498.096 327.504L498.247 327.512C498.247 327.512 498.138 324.607 498.096 327.504Z" fill="#333333"/>
<path d="M402.377 180.948C402.527 180.929 404.185 208.435 436.157 206.036C458.291 204.379 466.187 180.909 466.689 180.909C464.303 180.407 460.285 179.666 459.225 179.1C455.739 177.229 450.775 175.281 449.651 168.517C449.005 164.618 450.103 144.672 449.765 140.727L416.441 148.307C416.916 156.638 420.238 175.951 408.593 179.373C406.656 179.934 404.568 180.455 402.377 180.948Z" fill="#E98862"/>
<path d="M417.379 161.3C430.796 162.335 448.021 156.645 451.263 138.75L454.19 122.604C457.433 104.71 450.658 88.5017 433.8 85.4503C416.941 82.3981 401.71 94.6238 398.469 112.518L397.174 119.666C396.771 122.128 396.538 124.614 396.474 127.108C396.257 133.698 395.953 143.722 399.215 151.084C402.295 158.035 408.806 160.639 417.379 161.3Z" fill="#E98862"/>
<path d="M447.469 84.5334C442.143 82.8731 436.618 81.9335 431.042 81.7399C430.859 80.7665 430.443 79.8517 429.83 79.0732C429.218 78.2947 428.426 77.6755 427.523 77.2683C424.575 76.1178 420.974 77.9709 418.578 81.5431C417.328 79.407 415.373 77.7724 413.049 76.92C406.449 74.8667 406.121 84.3417 406.121 84.3417C406.121 84.3417 395.657 74.0218 395.33 87.1837C394.935 103.109 397.862 107.783 399.998 108.956C404.218 111.284 407.359 110.89 409.028 114.315C414.085 124.688 409.129 153.908 414.977 157.566C423.942 163.171 442.298 163.364 448.261 162.939C450.554 162.771 452.701 160.118 453.666 158.034C456.784 151.302 463.739 136.041 465.675 129.73C469.254 118.088 468.985 91.5548 447.469 84.5334Z" fill="#0C0C0C"/>
<path d="M410.978 147.132C416.155 146.571 419.75 140.581 419.189 135.408C418.629 130.236 414.122 127.838 408.946 128.4L406.655 132.155L406.53 147.616L410.978 147.132Z" fill="#E98862"/>
<path d="M365.062 236.811C366.013 247.975 370.638 317.625 371.553 331.377H497.544C498.256 318.974 501.451 264.742 504.151 240.489C506.727 217.345 511.781 205.758 508.076 198.916C502.022 187.734 485.478 181.272 474.197 179.746C467.309 178.814 456.947 178.146 456.947 178.146H408.435C403.827 178.146 376.961 180.313 371.023 184.883C360.639 192.879 363.046 213.155 365.062 236.811Z" fill="#367CFF"/>
<path d="M363.323 222.827C363.216 222.827 363.113 222.786 363.035 222.712C362.957 222.639 362.91 222.538 362.904 222.431L361.888 204.704C361.881 204.593 361.919 204.484 361.993 204.401C362.067 204.319 362.171 204.268 362.282 204.262C362.392 204.257 362.5 204.295 362.583 204.369C362.666 204.442 362.716 204.545 362.724 204.655L363.74 222.384C363.744 222.439 363.736 222.494 363.718 222.546C363.7 222.597 363.671 222.645 363.635 222.686C363.598 222.727 363.554 222.761 363.504 222.785C363.455 222.809 363.401 222.823 363.346 222.826L363.323 222.827Z" fill="#0C0C0C"/>
<path d="M524.783 330.65C528.488 330.649 532.139 329.754 535.424 328.04C538.709 326.326 541.531 323.845 543.65 320.806C545.769 317.768 547.122 314.263 547.594 310.59C548.066 306.917 547.643 303.184 546.362 299.709C545.06 296.181 514.546 215.422 508.737 200.458L465.722 217.875C468.989 226.288 480.822 258.179 490.33 283.87L474.534 282.154L469.562 327.862L522.294 330.514C523.12 330.604 523.951 330.65 524.783 330.65Z" fill="#367CFF"/>
<path d="M500.234 240.961L497.138 331.369L497.976 331.397L501.071 240.99L500.234 240.961Z" fill="#0C0C0C"/>
<path d="M272.983 144.532L234.839 161.346C234.013 161.71 233.076 161.731 232.235 161.405C231.393 161.079 230.716 160.432 230.351 159.606L216.223 127.592L221.737 114.147L253.412 100.184C253.821 100.004 254.262 99.9058 254.709 99.8957C255.156 99.8855 255.6 99.9635 256.017 100.125C256.434 100.287 256.814 100.529 257.137 100.837C257.461 101.146 257.72 101.515 257.9 101.924L274.724 140.047C275.088 140.872 275.109 141.808 274.783 142.649C274.456 143.49 273.809 144.168 272.983 144.532Z" fill="#0CBC8B"/>
<path opacity="0.29" d="M221.737 114.149L216.223 127.594L225.933 123.507L221.737 114.149Z" fill="#FFFFFA"/>
<g opacity="0.88">
<path d="M259 117.701C258.967 117.724 258.932 117.744 258.895 117.76L224.605 132.719C224.463 132.768 224.308 132.762 224.171 132.702C224.033 132.642 223.924 132.532 223.863 132.395C223.803 132.257 223.797 132.103 223.846 131.961C223.895 131.819 223.995 131.701 224.127 131.63L258.419 116.671C258.554 116.613 258.706 116.607 258.845 116.655C258.984 116.702 259.101 116.799 259.173 116.927C259.246 117.055 259.268 117.205 259.236 117.349C259.204 117.492 259.12 117.619 259 117.705V117.701Z" fill="white"/>
<path d="M261.899 124.183C261.867 124.206 261.832 124.226 261.795 124.242L227.504 139.201C227.362 139.253 227.205 139.248 227.066 139.188C226.927 139.129 226.816 139.019 226.755 138.88C226.694 138.741 226.688 138.585 226.739 138.442C226.79 138.3 226.893 138.182 227.027 138.112L261.318 123.153C261.453 123.093 261.606 123.086 261.747 123.132C261.888 123.179 262.006 123.276 262.079 123.405C262.152 123.535 262.174 123.686 262.14 123.831C262.107 123.975 262.021 124.102 261.899 124.187V124.183Z" fill="white"/>
<path d="M265.127 131.309C265.095 131.332 265.06 131.351 265.023 131.367L230.732 146.326C230.59 146.378 230.433 146.373 230.294 146.314C230.155 146.254 230.044 146.144 229.983 146.005C229.922 145.867 229.917 145.71 229.967 145.568C230.018 145.425 230.121 145.307 230.255 145.238L264.546 130.279C264.681 130.218 264.835 130.211 264.975 130.257C265.116 130.304 265.234 130.401 265.307 130.531C265.38 130.66 265.402 130.812 265.369 130.956C265.335 131.101 265.249 131.227 265.127 131.312V131.309Z" fill="white"/>
<path d="M249.003 145.99C248.97 146.013 248.935 146.033 248.899 146.049L233.689 152.684C233.547 152.733 233.392 152.726 233.255 152.666C233.117 152.606 233.008 152.497 232.947 152.36C232.887 152.222 232.881 152.067 232.93 151.926C232.979 151.784 233.079 151.666 233.211 151.595L248.422 144.96C248.557 144.902 248.709 144.897 248.848 144.944C248.988 144.991 249.105 145.088 249.177 145.216C249.249 145.344 249.271 145.495 249.239 145.638C249.207 145.782 249.123 145.908 249.003 145.994V145.99Z" fill="white"/>
</g>
<path d="M241.457 141.61C241.283 141.149 241.017 140.728 240.674 140.372C240.332 140.017 239.921 139.736 239.467 139.544C239.012 139.353 238.523 139.257 238.029 139.261C237.536 139.265 237.049 139.369 236.597 139.568C235.737 139.982 235.067 140.707 234.721 141.597C234.375 142.486 234.38 143.474 234.734 144.36L235.941 149.359C236.197 150.417 236.056 151.531 235.546 152.492C235.036 153.453 234.191 154.194 233.172 154.575C232.173 154.949 231.073 154.953 230.071 154.585C229.07 154.217 228.234 153.502 227.715 152.57C227.715 152.57 220.192 136.687 220.049 136.041C218.815 137.244 216.663 140.204 216.221 142.436C216.205 142.447 218.4 160.272 219.626 161.528L232.354 181.148C237.557 186.476 255.023 177.611 255.023 177.611L241.457 141.61Z" fill="#E98862"/>
<path d="M293.755 288.107C289.492 288.107 285.303 287.005 281.592 284.909C277.882 282.812 274.777 279.793 272.579 276.143L217.789 185.18L260.142 159.701L301.791 228.856L371.026 184.893L400.358 224.2L307.132 284.181C303.142 286.746 298.498 288.108 293.755 288.107Z" fill="#367CFF"/>
<path d="M365.765 246.848C365.671 246.848 365.58 246.817 365.506 246.759C365.432 246.701 365.38 246.62 365.358 246.529C365.335 246.438 365.344 246.342 365.383 246.256C365.422 246.171 365.489 246.101 365.572 246.058L377.535 239.888C377.634 239.837 377.749 239.828 377.855 239.861C377.961 239.895 378.049 239.97 378.1 240.068C378.151 240.167 378.16 240.282 378.127 240.388C378.093 240.494 378.018 240.582 377.92 240.633L365.957 246.802C365.897 246.832 365.831 246.848 365.765 246.848Z" fill="#0C0C0C"/>
<path d="M401.755 180.758L407.695 171.479C407.955 171.073 408.313 170.738 408.736 170.506C409.16 170.274 409.635 170.153 410.118 170.153H454.886C455.29 170.153 455.688 170.238 456.057 170.402C456.425 170.566 456.755 170.805 457.025 171.105L465.721 180.758H401.755Z" fill="#367CFF"/>
<path d="M55.9538 552.403L54.5071 552.562L72.369 715.695L73.8157 715.537L55.9538 552.403Z" fill="#292A2E"/>
<path d="M102.216 623.622L93.4292 710.504L94.8772 710.65L103.664 623.768L102.216 623.622Z" fill="#292A2E"/>
<path d="M117.328 700.001H52.1251V721.149H117.328V700.001Z" fill="#292A2E"/>
<path opacity="0.2" d="M117.328 700.001H52.1251V721.149H117.328V700.001Z" fill="white"/>
<path d="M156.635 661.061C168.987 644.655 163.099 619.397 143.484 604.647C123.868 589.897 97.954 591.24 85.6022 607.647C73.2504 624.054 79.1386 649.311 98.7538 664.061C118.369 678.812 144.283 677.468 156.635 661.061Z" fill="#0CBC8B"/>
<path opacity="0.2" d="M156.635 661.061C168.987 644.655 163.099 619.397 143.484 604.647C123.868 589.897 97.954 591.24 85.6022 607.647C73.2504 624.054 79.1386 649.311 98.7538 664.061C118.369 678.812 144.283 677.468 156.635 661.061Z" fill="white"/>
<path opacity="0.5" d="M156.633 661.064C155.803 662.171 154.898 663.219 153.924 664.201C140.327 672.883 120.258 671.516 104.337 659.542C84.723 644.795 78.8362 619.537 91.1896 603.13C92.0202 602.026 92.9229 600.978 93.8917 599.993C107.495 591.305 127.558 592.679 143.486 604.646C163.098 619.4 168.985 644.658 156.633 661.064Z" fill="white"/>
<path d="M65.6381 598.815C85.0697 583.824 90.351 558.114 77.4343 541.39C64.5175 524.666 38.294 523.261 18.8624 538.252C-0.56922 553.243 -5.85056 578.953 7.06618 595.677C19.9829 612.401 46.2065 613.805 65.6381 598.815Z" fill="#0CBC8B"/>
<path opacity="0.2" d="M59.4883 594.513C44.4394 606.13 25.3144 607.9 11.4511 600.338C9.84665 598.926 8.38123 597.364 7.07497 595.672C-5.84822 578.953 -0.567169 553.24 18.8637 538.252C33.9125 526.642 53.0376 524.865 66.8942 532.421C68.5019 533.834 69.9694 535.398 71.2762 537.093C84.196 553.812 78.915 579.526 59.4883 594.513Z" fill="white"/>
</g>
<defs>
<clipPath id="clip0_70_2">
<rect width="598" height="722" fill="white"/>
</clipPath>
</defs>
</svg>
