<svg width="61" height="54" viewBox="0 0 61 54" fill="none" xmlns="http://www.w3.org/2000/svg">
<path d="M59.2514 32.7375C59.7 30.9508 59.9238 29.1256 59.9186 27.2953C59.9186 13.2746 46.8895 1.8985 30.809 1.8985C29.143 1.89753 27.4799 2.01848 25.8364 2.26011C23.1489 0.775027 20.0425 -0.00835406 16.8744 6.71869e-05C7.56377 6.71869e-05 9.08616e-05 6.59577 9.08616e-05 14.7235C-0.0098159 17.3488 0.790563 19.9266 2.31481 22.1786C1.92485 23.8583 1.72777 25.5685 1.7266 27.2833C1.7266 41.3184 14.7557 52.6801 30.8199 52.6801C32.6049 52.6841 34.3865 52.5429 36.1424 52.2582C38.6035 53.4056 41.3439 54.0035 44.1254 54C53.4524 54 60.9997 47.4043 60.9997 39.2766C61.0153 37.0046 60.4158 34.7623 59.2514 32.7375ZM45.7498 39.4152C44.3991 41.0738 42.4125 42.396 39.8391 43.3242C37.2657 44.2523 34.2252 44.7187 30.73 44.7187C26.5513 44.7187 23.056 44.0715 20.307 42.8059C18.4013 41.918 16.7577 40.6464 15.5087 39.0934C14.2683 37.5469 13.6488 36.0004 13.6488 34.513C13.6488 33.5849 14.0572 32.7833 14.8565 32.1083C15.6517 31.461 16.6838 31.1235 17.8915 31.1235C18.8923 31.1235 19.7501 31.3767 20.4499 31.8974C21.1171 32.3892 21.689 33.1208 22.1492 34.0767C22.5952 34.9922 23.1585 35.8593 23.8281 36.6609C24.4018 37.3215 25.2124 37.8699 26.2599 38.3063C27.3246 38.7426 28.738 38.9668 30.4808 38.9668C32.88 38.9668 34.8502 38.5172 36.3275 37.6313C37.7899 36.773 38.4898 35.7328 38.4898 34.4672C38.4898 33.4692 38.1235 32.6809 37.361 32.0625C36.5672 31.4152 35.5337 30.909 34.247 30.5715C32.9276 30.2099 31.133 29.8266 28.9082 29.4192C25.8895 28.8563 23.3256 28.1813 21.2832 27.4219C19.2027 26.6481 17.5184 25.5657 16.278 24.2301C15.0226 22.8657 14.4031 21.1504 14.4031 19.1387C14.3818 17.2794 15.0767 15.4691 16.3733 14.0063C17.6764 12.5297 19.5676 11.3762 22.0308 10.5891C24.4462 9.80202 27.3219 9.40787 30.5625 9.40787C33.1686 9.40787 35.4411 9.67545 37.3474 10.1817C39.2536 10.688 40.8753 11.4051 42.162 12.2766C43.4487 13.1481 44.3868 14.0762 44.99 15.0489C45.5932 16.0217 45.8969 17.004 45.8969 17.9418C45.8969 18.841 45.4993 19.6715 44.7041 20.3887C44.3185 20.7439 43.854 21.0247 43.3399 21.2135C42.8258 21.4022 42.2732 21.4949 41.7167 21.4855C40.637 21.4855 39.7942 21.2601 39.2073 20.8105C38.6627 20.3887 38.0949 19.7414 37.4754 18.7988C36.7442 17.6043 35.87 16.6472 34.8693 15.9722C33.8835 15.3262 32.2632 14.9887 30.007 14.9887C27.9251 14.9887 26.2258 15.3503 24.9691 16.0735C23.7613 16.7629 23.1731 17.5645 23.1731 18.5059C23.1581 19.0453 23.3675 19.5707 23.7613 19.9824C24.2405 20.4706 24.8307 20.8637 25.4933 21.136C26.2394 21.4681 27.0218 21.7318 27.8284 21.9231C28.6454 22.1207 29.9893 22.4161 31.8492 22.7813C34.2157 23.2176 36.3766 23.7239 38.2842 24.2434C40.2231 24.7918 41.891 25.4487 43.2567 26.2262C44.6132 26.9842 45.7419 28.0218 46.5463 29.2504C47.3252 30.4558 47.7228 31.9781 47.7228 33.7223C47.8092 35.7626 47.1139 37.7688 45.7498 39.4152Z" fill="#787878"/>
</svg>
