<svg width="67" height="54" viewBox="0 0 67 54" fill="none" xmlns="http://www.w3.org/2000/svg">
<path d="M21.0464 54C46.3305 54 60.1618 33.2194 60.1618 15.2301C60.1674 14.6458 60.159 14.0615 60.1367 13.4772C62.8286 11.5427 65.1525 9.14896 67 6.40777C64.4838 7.50546 61.8186 8.23039 59.0898 8.55935C61.9649 6.85514 64.1182 4.17317 65.1491 1.01221C62.4493 2.60189 59.4926 3.71626 56.4098 4.30603C54.3378 2.11717 51.5959 0.667117 48.6089 0.180478C45.6218 -0.306162 42.5564 0.197773 39.8874 1.61422C37.2183 3.03068 35.0946 5.28059 33.8453 8.01547C32.5959 10.7503 32.2906 13.8176 32.9766 16.742C27.5105 16.4714 22.163 15.0636 17.2811 12.6098C12.3992 10.1561 8.09223 6.71131 4.63975 2.49921C2.88762 5.50287 2.35317 9.05522 3.14484 12.4354C3.93652 15.8156 5.99501 18.7705 8.90263 20.7004C6.72265 20.6305 4.59031 20.0498 2.68 19.0057V19.1926C2.68533 22.3385 3.78474 25.3862 5.79267 27.8213C7.80059 30.2564 10.594 31.9298 13.7015 32.559C12.5218 32.8815 11.303 33.0422 10.0793 33.0367C9.21635 33.0455 8.35476 32.9662 7.50819 32.7999C8.38502 35.5093 10.0951 37.8783 12.3985 39.5746C14.7019 41.2708 17.4829 42.2091 20.3512 42.2577C15.4774 46.0498 9.46059 48.108 3.26625 48.1019C2.17456 48.11 1.0835 48.0476 0 47.9149C6.2872 51.8919 13.5896 54.0032 21.0464 54Z" fill="#787878"/>
</svg>
