<svg width="41" height="41" viewBox="0 0 41 41" fill="none" xmlns="http://www.w3.org/2000/svg">
<path fill-rule="evenodd" clip-rule="evenodd" d="M3.41663 20.5C3.41663 11.0649 11.0648 3.41667 20.5 3.41667C29.9351 3.41667 37.5833 11.0649 37.5833 20.5C37.5833 29.9351 29.9351 37.5833 20.5 37.5833C11.0648 37.5833 3.41663 29.9351 3.41663 20.5ZM20.5 22.2083C20.0469 22.2083 19.6124 22.0284 19.292 21.708C18.9716 21.3876 18.7916 20.9531 18.7916 20.5V13.6667C18.7916 13.2136 18.9716 12.7791 19.292 12.4587C19.6124 12.1383 20.0469 11.9583 20.5 11.9583C20.953 11.9583 21.3876 12.1383 21.7079 12.4587C22.0283 12.7791 22.2083 13.2136 22.2083 13.6667V20.5C22.2083 20.9531 22.0283 21.3876 21.7079 21.708C21.3876 22.0284 20.953 22.2083 20.5 22.2083ZM17.9375 27.3333C17.9375 26.6537 18.2074 26.0019 18.688 25.5214C19.1686 25.0408 19.8203 24.7708 20.5 24.7708H20.517C21.1967 24.7708 21.8484 25.0408 22.329 25.5214C22.8096 26.0019 23.0795 26.6537 23.0795 27.3333V27.3504C23.0795 28.03 22.8096 28.6818 22.329 29.1624C21.8484 29.6429 21.1967 29.9129 20.517 29.9129H20.5C19.8203 29.9129 19.1686 29.6429 18.688 29.1624C18.2074 28.6818 17.9375 28.03 17.9375 27.3504V27.3333Z" fill="white"/>
</svg>
