<svg width="44" height="44" viewBox="0 0 44 44" fill="none" xmlns="http://www.w3.org/2000/svg">
<path d="M22 42C24.6269 42.0032 27.2286 41.4874 29.6555 40.4821C32.0825 39.4768 34.2868 38.0018 36.142 36.142C38.0019 34.2868 39.4768 32.0824 40.4821 29.6555C41.4874 27.2286 42.0033 24.6269 42 22C42.0033 19.3731 41.4874 16.7714 40.4821 14.3445C39.4768 11.9176 38.0019 9.71317 36.142 7.858C34.2868 5.99816 32.0825 4.52322 29.6555 3.51792C27.2286 2.51261 24.6269 1.99676 22 2C19.3731 1.99676 16.7714 2.51261 14.3445 3.51792C11.9176 4.52322 9.71319 5.99816 7.85802 7.858C5.99818 9.71317 4.52323 11.9176 3.51793 14.3445C2.51263 16.7714 1.99678 19.3731 2.00002 22C1.99678 24.6269 2.51263 27.2286 3.51793 29.6555C4.52323 32.0824 5.99818 34.2868 7.85802 36.142C9.71319 38.0018 11.9176 39.4768 14.3445 40.4821C16.7714 41.4874 19.3731 42.0032 22 42Z" stroke="#FFC700" stroke-width="4" stroke-linejoin="round"/>
<path fill-rule="evenodd" clip-rule="evenodd" d="M22 35C22.663 35 23.2989 34.7366 23.7678 34.2678C24.2366 33.7989 24.5 33.163 24.5 32.5C24.5 31.837 24.2366 31.2011 23.7678 30.7322C23.2989 30.2634 22.663 30 22 30C21.337 30 20.7011 30.2634 20.2322 30.7322C19.7634 31.2011 19.5 31.837 19.5 32.5C19.5 33.163 19.7634 33.7989 20.2322 34.2678C20.7011 34.7366 21.337 35 22 35Z" fill="#FFC700"/>
<path d="M22 10V26" stroke="#FFC700" stroke-width="4" stroke-linecap="round" stroke-linejoin="round"/>
</svg>
