<svg width="37" height="44" viewBox="0 0 37 44" fill="none" xmlns="http://www.w3.org/2000/svg">
<path d="M25.3164 3.38475C23.5856 1.33804 21.1682 0.210938 18.5 0.210938C15.8176 0.210938 13.3922 1.33122 11.6694 3.36526C9.92798 5.42171 9.07949 8.21658 9.27872 11.2345C9.67361 17.1886 13.8102 22.0321 18.5 22.0321C23.1898 22.0321 27.3193 17.1896 27.7204 11.2365C27.9223 8.2458 27.0685 5.45678 25.3164 3.38475ZM34.1534 43.8533H2.84658C2.43681 43.8591 2.03099 43.7648 1.65867 43.5773C1.28635 43.3897 0.956882 43.1136 0.69424 42.769C0.116131 42.0121 -0.116892 40.9785 0.0556514 39.9332C0.806304 35.3722 3.14898 31.5409 6.83109 28.8512C10.1023 26.4635 14.246 25.1494 18.5 25.1494C22.754 25.1494 26.8977 26.4645 30.1689 28.8512C33.851 31.5399 36.1937 35.3713 36.9443 39.9323C37.1169 40.9775 36.8839 42.0111 36.3058 42.768C36.0432 43.1128 35.7138 43.3891 35.3414 43.5768C34.9691 43.7645 34.5633 43.859 34.1534 43.8533Z" fill="#787878"/>
</svg>
